<svg width="34" height="35" viewBox="0 0 34 35" fill="none" xmlns="http://www.w3.org/2000/svg">
<path d="M6.32261 26.5202C5.86061 26.5202 5.41649 26.6355 5.02247 26.852C2.94688 24.1913 1.80762 20.8861 1.80762 17.5C1.80762 9.11253 8.63109 2.28906 17.0186 2.28906C18.0382 2.28906 19.0574 2.39053 20.0479 2.59068C20.3963 2.66118 20.7367 2.43559 20.8072 2.08664C20.8777 1.73769 20.6521 1.3978 20.3031 1.32705C19.2288 1.11002 18.1238 1 17.0186 1C12.6113 1 8.46769 2.71632 5.35128 5.83273C2.23487 8.94913 0.518555 13.0928 0.518555 17.5C0.518555 21.2073 1.7774 24.8252 4.06927 27.7256C3.77419 28.1665 3.61558 28.6846 3.61558 29.2272C3.61558 29.9503 3.89731 30.6301 4.40865 31.1412C4.91975 31.6525 5.59953 31.9342 6.32261 31.9342C7.04569 31.9342 7.72547 31.6525 8.23682 31.1412C8.74816 30.6301 9.02964 29.95 9.02964 29.2269C9.02964 28.5041 8.74816 27.8241 8.23682 27.313C7.72547 26.8016 7.04569 26.5202 6.32261 26.5202ZM7.32516 30.2297C7.05753 30.4976 6.70127 30.6452 6.32261 30.6452C5.94395 30.6452 5.58794 30.4976 5.32006 30.2297C5.05218 29.9619 4.90464 29.6059 4.90464 29.2272C4.90464 28.8483 5.05218 28.4923 5.32006 28.2244C5.58769 27.9565 5.94395 27.8092 6.32261 27.8092C6.70127 27.8092 7.05727 27.9568 7.32516 28.2244C7.59304 28.4923 7.74058 28.8483 7.74058 29.2272C7.74058 29.6059 7.59304 29.9619 7.32516 30.2297Z" fill="#47B199" stroke="#47B199" stroke-width="0.5"/>
<path d="M29.9674 7.27375C30.6681 6.22261 30.5555 4.78551 29.6288 3.85874C29.1174 3.34765 28.4376 3.06592 27.7146 3.06592C26.9915 3.06592 26.3117 3.34765 25.8004 3.85874C25.289 4.37009 25.0075 5.04987 25.0075 5.77295C25.0075 6.49603 25.289 7.17581 25.8004 7.68716C26.3117 8.1985 26.9915 8.47998 27.7146 8.47998C28.1766 8.47998 28.6207 8.36467 29.0147 8.14815C31.0903 10.8091 32.2296 14.1141 32.2296 17.5001C32.2296 25.8876 25.4061 32.7111 17.0186 32.7111C16.009 32.7111 14.9994 32.6116 14.0183 32.4152C13.6693 32.3455 13.3297 32.5718 13.2597 32.9208C13.1899 33.27 13.4163 33.6094 13.7652 33.6794C14.8295 33.8921 15.9242 34.0001 17.0186 34.0001C21.4258 34.0001 25.5695 32.2838 28.6859 29.1674C31.8023 26.051 33.5186 21.9074 33.5186 17.5001C33.5186 13.7926 32.2595 10.1744 29.9674 7.27375ZM26.712 6.77575C26.4441 6.50787 26.2966 6.15186 26.2966 5.77295C26.2966 5.39429 26.4441 5.03828 26.712 4.7704C26.9796 4.50252 27.3359 4.35498 27.7146 4.35498C28.0932 4.35498 28.4495 4.50252 28.7174 4.7704C29.27 5.32329 29.27 6.22286 28.7174 6.77575C28.4495 7.04338 28.0932 7.19092 27.7146 7.19092C27.3356 7.19092 26.9796 7.04338 26.712 6.77575Z" fill="#47B199" stroke="#47B199" stroke-width="0.5"/>
<path d="M14.3589 28.5859C14.3589 28.9419 14.6477 29.2305 15.0034 29.2305H19.0335C19.3895 29.2305 19.678 28.9419 19.678 28.5859V27.3364C20.5255 27.1083 21.3357 26.7724 22.097 26.3339L22.9792 27.2161C23.1001 27.3369 23.264 27.4049 23.4352 27.4049C23.6059 27.4049 23.7701 27.3369 23.8909 27.2158L26.7394 24.3653C26.9909 24.1135 26.9909 23.7054 26.7394 23.4539L25.8582 22.5727C26.2968 21.8113 26.6327 21.0011 26.8608 20.1537H28.1055C28.4615 20.1537 28.7501 19.8651 28.7501 19.5091V15.479C28.7501 15.123 28.4615 14.8345 28.1055 14.8345H26.8605C26.6324 13.9873 26.2968 13.1771 25.8582 12.4158L26.7346 11.5393C26.8555 11.4185 26.9235 11.2543 26.9235 11.0834C26.9232 10.9124 26.8552 10.7483 26.7344 10.6274L23.8836 7.77891C23.6321 7.52739 23.224 7.52739 22.9722 7.77916L22.097 8.65456C21.3357 8.21598 20.5255 7.88012 19.678 7.65202V6.41406C19.678 6.05806 19.3895 5.76953 19.0335 5.76953H15.0034C14.6477 5.76953 14.3589 6.05806 14.3589 6.41406V7.65227C13.5117 7.88012 12.7015 8.21598 11.9401 8.65456L11.0647 7.77916C10.8132 7.52764 10.4051 7.52739 10.1533 7.77891L7.30278 10.6277C7.18168 10.7485 7.1137 10.9124 7.1137 11.0834C7.1137 11.2543 7.18168 11.4185 7.30253 11.5393L8.17894 12.4158C7.74036 13.1771 7.4045 13.9871 7.17639 14.8345H5.93391C5.5779 14.8345 5.28938 15.123 5.28938 15.4788L5.28711 19.5089C5.28686 19.6798 5.35484 19.844 5.47569 19.9648C5.59654 20.0857 5.76044 20.1537 5.93164 20.1537H7.17639C7.4045 21.0011 7.74036 21.8113 8.17894 22.5727L7.29775 23.4539C7.04623 23.7054 7.04598 24.1135 7.29775 24.3653L10.1463 27.2158C10.2671 27.3367 10.431 27.4049 10.602 27.4049H10.6022C10.7732 27.4049 10.9371 27.3369 11.0579 27.2161L11.9399 26.3339C12.7015 26.7724 13.5117 27.1083 14.3589 27.3364V28.5859ZM12.1927 24.9783C11.9376 24.8134 11.602 24.8492 11.387 25.0639L10.6022 25.8487L8.66486 23.9098L9.44887 23.1255C9.66363 22.9108 9.69938 22.5752 9.53447 22.3201C8.95011 21.4158 8.53922 20.4246 8.31364 19.3737C8.24969 19.0768 7.98734 18.8646 7.68346 18.8646H6.57642L6.57794 16.1236H7.68346C7.98734 16.1236 8.24969 15.9116 8.31364 15.6145C8.53922 14.5639 8.95011 13.5726 9.53447 12.6683C9.69938 12.4132 9.66363 12.0776 9.44887 11.8629L8.66989 11.0836L10.6088 9.14627L11.387 9.92474C11.602 10.1395 11.9374 10.175 12.1927 10.0103C13.0968 9.42599 14.088 9.0151 15.1389 8.78951C15.4357 8.72556 15.648 8.46297 15.648 8.15933V7.05859H18.389V8.15908C18.389 8.46297 18.601 8.72556 18.8981 8.78926C19.9487 9.0151 20.9402 9.42574 21.8443 10.0101C22.0993 10.175 22.4349 10.1395 22.6497 9.92449L23.4281 9.14627L25.367 11.0836L24.5881 11.8626C24.373 12.0776 24.3375 12.4132 24.5025 12.6683C25.0868 13.5726 25.4974 14.5639 25.7233 15.6145C25.787 15.9116 26.0496 16.1236 26.3535 16.1236H27.461V18.8646H26.3535C26.0496 18.8646 25.7872 19.0768 25.7233 19.3737C25.4977 20.4243 25.0868 21.4158 24.5025 22.3199C24.3375 22.5752 24.3733 22.9108 24.5881 23.1255L25.3721 23.9096L23.4347 25.8484L22.6499 25.0639C22.4349 24.8489 22.0993 24.8134 21.8443 24.9783C20.9399 25.5627 19.9487 25.9733 18.8981 26.1992C18.601 26.2631 18.389 26.5255 18.389 26.8293V27.9414H15.648V26.8293C15.648 26.5257 15.4357 26.2631 15.1389 26.1992C14.0882 25.9736 13.097 25.5627 12.1927 24.9783Z" fill="#47B199" stroke="#47B199" stroke-width="0.5"/>
<path d="M22.3442 17.5C22.3442 14.5634 19.9552 12.1743 17.0186 12.1743C14.0819 12.1743 11.6929 14.5634 11.6929 17.5C11.6929 20.4366 14.0819 22.8257 17.0186 22.8257C19.9552 22.8257 22.3442 20.4366 22.3442 17.5ZM12.9819 17.5C12.9819 15.2741 14.7927 13.4634 17.0186 13.4634C19.2445 13.4634 21.0552 15.2744 21.0552 17.5C21.0552 19.7256 19.2445 21.5366 17.0186 21.5366C14.7927 21.5366 12.9819 19.7259 12.9819 17.5Z" fill="#47B199" stroke="#47B199" stroke-width="0.5"/>
<path d="M22.9531 3.43728C23.1228 3.43728 23.289 3.36829 23.4088 3.24845C23.5287 3.12785 23.5977 2.96169 23.5977 2.79199C23.5977 2.62331 23.5289 2.45689 23.4088 2.33629C23.289 2.21645 23.1228 2.14746 22.9531 2.14746C22.7829 2.14746 22.6175 2.21645 22.4977 2.33629C22.3776 2.45689 22.3086 2.62255 22.3086 2.79199C22.3086 2.96219 22.3776 3.12785 22.4977 3.24845C22.6175 3.36829 22.7829 3.43728 22.9531 3.43728Z" fill="#47B199" stroke="#47B199" stroke-width="0.5"/>
<path d="M11.1123 31.5737C10.9429 31.5737 10.7764 31.6427 10.6566 31.7626C10.5368 31.8824 10.4678 32.0488 10.4678 32.2183C10.4678 32.3885 10.5368 32.5541 10.6566 32.674C10.7764 32.7938 10.9429 32.8628 11.1123 32.8628C11.2817 32.8628 11.4482 32.7938 11.568 32.674C11.6879 32.5541 11.7568 32.3877 11.7568 32.2183C11.7568 32.0488 11.6879 31.8824 11.568 31.7626C11.4482 31.6427 11.2817 31.5737 11.1123 31.5737Z" fill="#47B199" stroke="#47B199" stroke-width="0.5"/>
</svg>
