<svg width="46" height="26" viewBox="0 0 46 26" fill="none" xmlns="http://www.w3.org/2000/svg">
<path d="M33.3809 13.0892C33.8597 13.0892 34.2537 12.6994 34.1897 12.225C34.0517 11.2013 33.6697 10.221 33.0706 9.36922C32.3046 8.27999 31.221 7.4538 29.9678 7.00351C28.7147 6.55321 27.353 6.50077 26.0689 6.85334C24.7849 7.20591 23.6409 7.9463 22.7934 8.97337C21.9458 10.0004 21.436 11.2641 21.3336 12.5918C21.2312 13.9195 21.5411 15.2464 22.2211 16.3913C22.9011 17.5362 23.9179 18.4433 25.1327 18.9887C26.0828 19.4152 27.1177 19.6042 28.149 19.5454C28.627 19.5182 28.9349 19.0573 28.844 18.5873C28.7531 18.1172 28.2968 17.8184 27.8181 17.8221C27.1408 17.8274 26.4668 17.6873 25.8427 17.4071C24.9536 17.008 24.2093 16.3441 23.7116 15.5061C23.214 14.6681 22.9871 13.6969 23.0621 12.7251C23.137 11.7534 23.5102 10.8285 24.1305 10.0768C24.7508 9.32503 25.5881 8.78313 26.5279 8.52508C27.4678 8.26703 28.4644 8.30541 29.3816 8.63499C30.2988 8.96457 31.0919 9.56927 31.6526 10.3665C32.0461 10.926 32.3116 11.5612 32.435 12.2272C32.5222 12.6979 32.9022 13.0892 33.3809 13.0892Z" fill="#47B199" stroke="#47B199" stroke-width="0.2"/>
<path d="M39.2621 13.0295C39.7693 13.0295 40.1841 12.6177 40.1467 12.1118C39.9853 9.92629 39.2496 7.81606 38.0067 5.99805C36.5905 3.92663 34.5819 2.33111 32.2437 1.42038C29.9056 0.509646 27.347 0.326156 24.9028 0.893931C22.4586 1.46171 20.2429 2.75428 18.5456 4.60243C16.8484 6.45057 15.7487 8.76814 15.3907 11.2517C15.0326 13.7353 15.4328 16.2691 16.5389 18.5214C17.645 20.7737 19.4055 22.6395 21.5897 23.8745C23.5068 24.9585 25.6719 25.5122 27.8632 25.4874C28.3704 25.4816 28.7455 25.0334 28.7024 24.5279C28.6593 24.0225 28.2142 23.6519 27.7069 23.6512C25.885 23.6486 24.0887 23.1773 22.4939 22.2755C20.6317 21.2225 19.1308 19.6318 18.1878 17.7116C17.2448 15.7914 16.9036 13.6312 17.2089 11.5138C17.5141 9.39646 18.4516 7.4206 19.8986 5.84496C21.3456 4.26931 23.2347 3.16732 25.3185 2.68326C27.4022 2.1992 29.5836 2.35564 31.577 3.13209C33.5704 3.90853 35.2829 5.26881 36.4902 7.0348C37.5243 8.54729 38.1465 10.297 38.3039 12.1121C38.3477 12.6175 38.7548 13.0295 39.2621 13.0295Z" fill="#47B199" stroke="#47B199" stroke-width="0.2"/>
<rect x="9.68652" y="1.16406" width="1.77981" height="24.3241" rx="0.889906" fill="#47B199" stroke="#47B199" stroke-width="0.2"/>
<rect x="4.82178" y="6.26611" width="1.77981" height="19.222" rx="0.889906" fill="#47B199" stroke="#47B199" stroke-width="0.2"/>
<rect x="6.60156" y="6.26611" width="1.77981" height="6.17001" rx="0.889906" transform="rotate(90 6.60156 6.26611)" fill="#47B199" stroke="#47B199" stroke-width="0.2"/>
<rect x="45.082" y="17.8281" width="1.72757" height="18.072" rx="0.863783" transform="rotate(90 45.082 17.8281)" fill="#47B199" stroke="#47B199" stroke-width="0.2"/>
<rect x="45.082" y="23.6548" width="1.83313" height="18.072" rx="0.916566" transform="rotate(90 45.082 23.6548)" fill="#47B199" stroke="#47B199" stroke-width="0.2"/>
<rect x="11.4663" y="1.16406" width="1.77981" height="6.17001" rx="0.889906" transform="rotate(90 11.4663 1.16406)" fill="#47B199" stroke="#47B199" stroke-width="0.2"/>
</svg>
