<svg width="39" height="37" viewBox="0 0 39 37" fill="none" xmlns="http://www.w3.org/2000/svg">
<path d="M21.7391 17.9375C21.7469 17.9375 21.7546 17.9376 21.7623 17.9376C22.6624 17.9376 23.5076 17.6102 24.1667 17.0557C24.4553 17.0601 24.7523 17.0635 25.0691 17.0657H25.0885C26.5953 17.0657 27.9336 16.0538 28.3472 14.5988C29.2522 11.4127 29.5968 8.13238 29.7265 5.94144C29.835 4.10329 28.4306 2.4999 26.5952 2.36718C26.1998 2.33908 25.8354 2.31732 25.4854 2.30038C24.9195 1.85485 24.2215 1.5675 23.4553 1.5125C17.1108 1.05653 11.0271 1.72832 7.04059 2.37216C6.71229 2.42523 6.48908 2.73435 6.54215 3.06265C6.59522 3.39104 6.90474 3.61416 7.23264 3.56109C11.156 2.92744 17.1404 2.2661 23.369 2.71379C24.7431 2.81247 25.7949 4.01352 25.7135 5.39121C25.5714 7.79645 25.194 11.3954 24.2034 14.8825C23.8918 15.9792 22.8787 16.7419 21.7465 16.7332C17.6824 16.7086 10.0029 16.4393 4.23262 14.9122C3.31772 14.6696 2.62185 13.9435 2.41639 13.0167C2.10719 11.6266 1.69996 9.43886 1.51546 6.91118C1.42457 5.65737 2.28632 4.51445 3.51965 4.25279C3.98782 4.15371 4.43246 4.06354 4.87911 3.97707C5.20565 3.91388 5.41906 3.59794 5.35587 3.2714C5.29268 2.94495 4.9765 2.73138 4.65021 2.79464C4.19665 2.88248 3.74526 2.97401 3.26995 3.07461C1.4509 3.46049 0.180159 5.14737 0.314403 6.99853C0.504208 9.59903 0.922999 11.8488 1.24079 13.2777C1.54396 14.6456 2.57223 15.718 3.92431 16.0764C4.04892 16.1094 4.17473 16.1416 4.30095 16.1734C3.55803 18.7883 2.20571 24.4897 2.10125 31.626C2.09041 32.4108 2.47243 33.1461 3.12278 33.5927C4.05542 34.2339 6.02589 35.3752 8.74337 35.8146C8.92507 35.844 9.10588 35.8583 9.28461 35.8583C10.6227 35.8583 11.8376 35.0562 12.3502 33.7791C12.5086 33.3848 12.5888 32.9699 12.5888 32.5457C12.5888 31.6614 12.2444 30.8295 11.6185 30.2026L11.0796 29.6641C11.1728 28.88 11.5147 26.5031 12.4771 23.7699L14.4723 23.9931C14.5865 24.006 14.7002 24.0122 14.813 24.0122C16.066 24.0122 17.2041 23.238 17.6535 22.0414L19.208 17.8941C20.1476 17.9206 21.0023 17.933 21.7391 17.9375ZM26.9157 5.46227C26.9557 4.78559 26.8094 4.13829 26.5227 3.56976C27.697 3.66209 28.5937 4.69117 28.5241 5.87046C28.398 8.00135 28.064 11.1882 27.1886 14.2696C26.9236 15.2019 26.0711 15.8516 25.1093 15.8605C25.212 15.655 25.2974 15.4384 25.3619 15.2116C26.3823 11.6199 26.7701 7.9274 26.9157 5.46227ZM10.0246 30.3126L10.7668 31.0541C11.1651 31.453 11.3844 31.9827 11.3844 32.5457C11.3844 32.8154 11.3334 33.0794 11.2325 33.3304C10.8627 34.2519 9.91841 34.7844 8.93559 34.6257C6.45054 34.224 4.65454 33.1843 3.80492 32.6002C3.48697 32.3819 3.3003 32.0239 3.30551 31.6432C3.40877 24.5928 4.75169 18.9799 5.47478 16.4489C8.28187 17.0613 11.381 17.427 14.2521 17.6426C10.4697 22.8932 9.87473 29.5403 9.85009 29.8366C9.83531 30.0132 9.89914 30.1874 10.0246 30.3126ZM16.5258 21.6185C16.2301 22.4056 15.4408 22.8899 14.6062 22.7964L12.9176 22.6074C13.586 20.9652 14.4842 19.2605 15.6871 17.7397C16.4661 17.7867 17.22 17.8233 17.9377 17.8514L16.5258 21.6185Z" fill="#47B199" stroke="#47B199" stroke-width="0.5"/>
<path d="M4.31006 9.65868C4.31006 10.5577 5.04142 11.289 5.94042 11.289H21.3819C22.2808 11.289 23.0123 10.5577 23.0123 9.65868C23.0123 8.75968 22.2809 8.02832 21.3819 8.02832H5.94042C5.04142 8.02824 4.31006 8.75968 4.31006 9.65868ZM5.94042 9.23258H21.3819C21.6168 9.23258 21.8079 9.42367 21.8079 9.6586C21.8079 9.89353 21.6168 10.0846 21.3819 10.0846H5.94042C5.70549 10.0846 5.5144 9.89353 5.5144 9.6586C5.5144 9.42367 5.70549 9.23258 5.94042 9.23258Z" fill="#47B199" stroke="#47B199" stroke-width="0.5"/>
<path d="M35.9186 7.78918L34.1132 7.91299C33.2141 7.97465 32.5098 8.72897 32.5098 9.63022V9.79706C32.5098 10.6983 33.2141 11.4526 34.1132 11.5143L35.9186 11.6381C35.9576 11.6408 35.9965 11.6421 36.0353 11.6421C36.4692 11.6421 36.8923 11.4766 37.2111 11.179C37.5584 10.8546 37.7577 10.3962 37.7577 9.92095V9.50642C37.7577 9.03126 37.5585 8.57273 37.2112 8.24844C36.8639 7.92399 36.3925 7.7565 35.9186 7.78918ZM36.3893 9.12865C36.4951 9.22741 36.5534 9.36165 36.5534 9.50642V9.92095C36.5534 10.0658 36.4951 10.2 36.3893 10.2988C36.2834 10.3976 36.1451 10.4465 36.0012 10.4366L34.1958 10.3128C33.9258 10.2944 33.7142 10.0678 33.7142 9.79714V9.6303C33.7142 9.35965 33.9258 9.13315 34.1958 9.1146L36.0011 8.9908C36.0133 8.98999 36.0256 8.98951 36.0376 8.98951C36.1687 8.98943 36.2924 9.03817 36.3893 9.12865Z" fill="#47B199" stroke="#47B199" stroke-width="0.5"/>
<path d="M31.6441 17.1288L33.1457 18.1388C33.4315 18.331 33.7682 18.4315 34.1082 18.4315C34.2373 18.4315 34.3671 18.417 34.4946 18.3875C34.9575 18.2804 35.3594 17.9828 35.597 17.5712L35.8042 17.2123C36.0418 16.8007 36.0985 16.304 35.9599 15.8494C35.8212 15.3949 35.4969 15.0145 35.0701 14.8056L33.4446 14.0101C32.6351 13.6139 31.6481 13.9151 31.1974 14.6955L31.114 14.84C30.6634 15.6205 30.8963 16.6259 31.6441 17.1288ZM32.157 15.4422L32.2405 15.2978C32.3355 15.1332 32.5098 15.0396 32.6895 15.0396C32.7657 15.0396 32.8429 15.0565 32.9153 15.092L34.5408 15.8874C34.6708 15.951 34.7657 16.0624 34.808 16.2009C34.8502 16.3394 34.8336 16.4848 34.7612 16.6102L34.554 16.9691C34.4816 17.0945 34.364 17.1816 34.2229 17.2143C34.0817 17.247 33.9379 17.2204 33.8178 17.1396L32.3162 16.1296C32.0916 15.9784 32.0217 15.6766 32.157 15.4422Z" fill="#47B199" stroke="#47B199" stroke-width="0.5"/>
<path d="M31.114 4.5876L31.1974 4.73204C31.5137 5.28002 32.0945 5.59163 32.6926 5.59163C32.9464 5.59163 33.2034 5.5355 33.4446 5.41748L35.0701 4.62205C35.4968 4.41313 35.8212 4.03272 35.9598 3.5782C36.0985 3.12368 36.0417 2.62693 35.8042 2.21544L35.5969 1.85638C35.3593 1.4449 34.9575 1.14735 34.4945 1.04016C34.0315 0.932891 33.5399 1.02362 33.1457 1.28882L31.6439 2.29878C30.8963 2.80164 30.6634 3.80702 31.114 4.5876C31.114 4.5876 31.114 4.58752 31.114 4.5876ZM32.3161 3.29799L33.8178 2.28802C33.938 2.20725 34.0816 2.18067 34.2229 2.21335C34.364 2.24603 34.4815 2.33306 34.554 2.45848L34.7612 2.81753C34.8335 2.94295 34.8502 3.08827 34.8079 3.22677C34.7657 3.36527 34.6708 3.47663 34.5407 3.54022L32.9153 4.33573C32.6721 4.45456 32.3757 4.36424 32.2404 4.12987L32.157 3.98551C32.0217 3.75106 32.0916 3.44901 32.3161 3.29799Z" fill="#47B199"/>
<path d="M31.114 4.5876L31.1974 4.73204C31.5137 5.28002 32.0945 5.59163 32.6926 5.59163C32.9464 5.59163 33.2034 5.5355 33.4446 5.41748L35.0701 4.62205C35.4968 4.41313 35.8212 4.03272 35.9598 3.5782C36.0985 3.12368 36.0417 2.62693 35.8042 2.21544L35.5969 1.85638C35.3593 1.4449 34.9575 1.14735 34.4945 1.04016C34.0315 0.932891 33.5399 1.02362 33.1457 1.28882L31.6439 2.29878C30.8963 2.80164 30.6634 3.80702 31.114 4.5876C31.114 4.58752 31.114 4.5876 31.114 4.5876V4.5876ZM32.3161 3.29799L33.8178 2.28802C33.938 2.20725 34.0816 2.18067 34.2229 2.21335C34.364 2.24603 34.4815 2.33306 34.554 2.45848L34.7612 2.81753C34.8335 2.94295 34.8502 3.08827 34.8079 3.22677C34.7657 3.36527 34.6708 3.47663 34.5407 3.54022L32.9153 4.33573C32.6721 4.45456 32.3757 4.36424 32.2404 4.12987L32.157 3.98551C32.0217 3.75106 32.0916 3.44901 32.3161 3.29799V3.29799Z" stroke="#47B199" stroke-width="0.5"/>
</svg>
