<svg width="32" height="35" viewBox="0 0 32 35" fill="none" xmlns="http://www.w3.org/2000/svg">
<path d="M16.7539 12.3604H6.63379C6.03514 12.3604 5.5498 12.8195 5.5498 13.3857V19.812C5.5498 20.3783 6.03514 20.8374 6.63379 20.8374H16.7539C17.3525 20.8374 17.8378 20.3783 17.8378 19.812V13.3857C17.8378 12.8195 17.3525 12.3604 16.7539 12.3604ZM15.6699 18.7866H7.71777V14.4111H15.6699V18.7866Z" fill="#47B199" stroke="#F2F5F5" stroke-width="0.3"/>
<path d="M12.4564 24.8578C12.88 24.4571 12.88 23.8075 12.4564 23.4069C12.0329 23.0062 11.3462 23.0062 10.9226 23.4069C10.4991 23.8075 10.4991 24.4571 10.9227 24.8578C11.3462 25.2584 12.0329 25.2584 12.4564 24.8578Z" fill="#47B199" stroke="#F2F5F5" stroke-width="0.3"/>
<path d="M11.693 27.4932C11.0939 27.4937 10.6088 27.9536 10.6094 28.5203C10.61 29.087 11.0961 29.5459 11.6952 29.5453C12.2942 29.5448 12.7794 29.0849 12.7788 28.5182C12.7782 27.9515 12.2921 27.4925 11.693 27.4932Z" fill="#47B199" stroke="#F2F5F5" stroke-width="0.3"/>
<path d="M7.05649 25.164C7.65558 25.1634 8.1407 24.7036 8.14012 24.1369C8.13954 23.5702 7.65341 23.1113 7.05433 23.1118C6.45524 23.1124 5.97013 23.5722 5.9707 24.1389C5.97135 24.7056 6.45748 25.1645 7.05649 25.164Z" fill="#47B199" stroke="#F2F5F5" stroke-width="0.3"/>
<path d="M17.0897 24.8539C17.5133 24.4532 17.5133 23.8036 17.0897 23.403C16.6662 23.0023 15.9795 23.0023 15.5559 23.403C15.1324 23.8036 15.1324 24.4532 15.556 24.8539C15.9795 25.2545 16.6662 25.2545 17.0897 24.8539Z" fill="#47B199" stroke="#F2F5F5" stroke-width="0.3"/>
<path d="M7.82264 29.2464C8.24618 28.8458 8.24618 28.1962 7.82264 27.7956C7.3991 27.3949 6.7124 27.3949 6.28886 27.7956C5.86532 28.1962 5.86532 28.8458 6.28886 29.2464C6.7124 29.6471 7.3991 29.6471 7.82264 29.2464Z" fill="#47B199" stroke="#F2F5F5" stroke-width="0.3"/>
<path d="M17.2861 29.0132C17.5683 28.5134 17.3687 27.8919 16.8403 27.625C16.3119 27.3581 15.6549 27.5469 15.3727 28.0467C15.0906 28.5465 15.2902 29.168 15.8185 29.4349C16.3469 29.7018 17.004 29.513 17.2861 29.0132Z" fill="#47B199" stroke="#F2F5F5" stroke-width="0.3"/>
<path d="M28.7079 10.9298H22.8246L22.8625 9.79146C22.9465 8.2263 22.3651 6.7388 21.2246 5.60144C20.1344 4.51425 18.6789 3.8943 17.1058 3.83893V1.22425C17.1057 0.549199 16.5251 0 15.8115 0H7.57646C6.86284 0 6.28226 0.549199 6.28226 1.22425V3.83893C4.70896 3.8943 3.25361 4.51425 2.16334 5.6015C1.02284 6.73887 0.441462 8.22623 0.525579 9.79139C0.543212 10.3231 1.15176 28.7077 1.15602 28.8407C1.20379 30.504 1.93664 32.0583 3.21957 33.2173C4.49195 34.3669 6.16252 35 7.92334 35L15.4752 34.9999C17.2014 34.9999 18.9372 34.2808 20.2375 33.027C20.7694 32.5141 21.2058 31.9363 21.5338 31.324H28.7079C30.2584 31.324 31.5198 30.1308 31.5198 28.6641V13.5896C31.5198 12.1229 30.2584 10.9298 28.7079 10.9298ZM14.9377 2.05078V8.21912H8.45023V2.05078H14.9377ZM15.4752 32.9492L7.92334 32.9492C6.72286 32.9492 5.5841 32.5177 4.71691 31.7343C3.8503 30.9513 3.35528 29.9039 3.32313 28.7848C3.32161 28.7329 2.75656 11.663 2.69225 9.71681C2.69196 9.70956 2.6916 9.70218 2.69124 9.69486C2.6353 8.69319 3.00639 7.74067 3.73627 7.01292C4.41296 6.33808 5.31 5.94508 6.28226 5.89128V8.2289C5.75046 8.29445 5.33941 8.72368 5.33941 9.24458C5.33941 9.81087 5.82475 10.27 6.42339 10.27H16.9646C17.5632 10.27 18.0485 9.81087 18.0485 9.24458C18.0485 8.72361 17.6375 8.29445 17.1057 8.2289V5.89121C18.078 5.94494 18.9749 6.33801 19.6516 7.01278C20.3815 7.74054 20.7526 8.69313 20.6967 9.69486C20.6964 9.70204 20.696 9.70936 20.6958 9.7166L20.0671 28.6258C20.0668 28.6365 20.0666 28.6472 20.0666 28.658C20.0666 29.6782 19.5648 30.7472 18.6898 31.5908C17.7946 32.4541 16.623 32.9492 15.4752 32.9492ZM22.2346 28.6753L22.7564 12.9806H25.0131V29.2732H22.1969C22.2211 29.0738 22.2339 28.8742 22.2346 28.6753ZM29.3518 28.664C29.3518 28.9999 29.063 29.2731 28.7079 29.2731H27.181V12.9806H28.7079C29.063 12.9806 29.3518 13.2538 29.3518 13.5896V28.664Z" fill="#47B199" stroke="#F2F5F5" stroke-width="0.3"/>
<path d="M26.0972 6.91319C26.6958 6.91319 27.1812 6.45409 27.1812 5.8878V1.12158C27.1812 0.555293 26.6958 0.0961914 26.0972 0.0961914C25.4985 0.0961914 25.0132 0.555293 25.0132 1.12158V5.8878C25.0132 6.45409 25.4985 6.91319 26.0972 6.91319Z" fill="#47B199" stroke="#F2F5F5" stroke-width="0.3"/>
<path d="M30.4355 2.14844C29.8369 2.14844 29.3516 2.60754 29.3516 3.17383V5.8879C29.3516 6.45419 29.8369 6.91329 30.4355 6.91329C31.0342 6.91329 31.5195 6.45419 31.5195 5.8879V3.17383C31.5195 2.60747 31.0342 2.14844 30.4355 2.14844Z" fill="#47B199" stroke="#F2F5F5" stroke-width="0.3"/>
</svg>
