<svg width="40" height="36" viewBox="0 0 40 36" fill="none" xmlns="http://www.w3.org/2000/svg">
<path d="M39.2212 7.10056C38.9458 4.06941 36.5337 1.70869 33.4864 1.48724C24.5372 0.835053 15.4628 0.834912 6.51533 1.48724C3.46768 1.70869 1.0558 4.06941 0.780317 7.10056C0.275155 12.6516 0.142858 18.281 0.386817 23.8326C0.412541 24.4175 0.911202 24.8707 1.49241 24.845C2.07729 24.8193 2.53072 24.3244 2.50499 23.7396C2.26513 18.2827 2.39531 12.7492 2.89185 7.29262C3.07291 5.29974 4.66147 3.74749 6.66926 3.60151C15.5148 2.95681 24.4856 2.95681 33.3326 3.60151C35.3402 3.74735 36.9288 5.29974 37.1101 7.29262C37.7795 14.6543 37.7795 22.1196 37.1101 29.4814C36.9289 31.4743 35.3404 33.0265 33.3324 33.1725C24.4855 33.8172 15.5147 33.8172 6.66911 33.1725C4.66147 33.0266 3.07291 31.4743 2.89171 29.4804C2.84464 28.9677 2.80082 28.4452 2.76167 27.9276C2.71757 27.3439 2.2093 26.9067 1.62485 26.9505C1.0411 26.9946 0.603497 27.5035 0.647596 28.0871C0.687596 28.6164 0.73226 29.1504 0.780317 29.6733C1.0558 32.7044 3.46768 35.0652 6.51519 35.2866C10.9896 35.6128 15.494 35.7757 20.0004 35.7757C24.5054 35.7757 29.0123 35.6126 33.4862 35.2868C36.5339 35.0653 38.9458 32.7046 39.2212 29.6734C39.9022 22.1841 39.9022 14.5896 39.2212 7.10056Z" fill="#47B199"/>
<path d="M39.2212 7.10056C38.9458 4.06941 36.5337 1.70869 33.4864 1.48724C24.5372 0.835053 15.4628 0.834912 6.51533 1.48724C3.46768 1.70869 1.0558 4.06941 0.780317 7.10056C0.275155 12.6516 0.142858 18.281 0.386817 23.8326C0.412541 24.4175 0.911202 24.8707 1.49241 24.845C2.07729 24.8193 2.53072 24.3244 2.50499 23.7396C2.26513 18.2827 2.39531 12.7492 2.89185 7.29262C3.07291 5.29974 4.66147 3.74749 6.66926 3.60151C15.5148 2.95681 24.4856 2.95681 33.3326 3.60151C35.3402 3.74735 36.9288 5.29974 37.1101 7.29262C37.7795 14.6543 37.7795 22.1196 37.1101 29.4814C36.9289 31.4743 35.3404 33.0265 33.3324 33.1725C24.4855 33.8172 15.5147 33.8172 6.66911 33.1725C4.66147 33.0266 3.07291 31.4743 2.89171 29.4804C2.84464 28.9677 2.80082 28.4452 2.76167 27.9276C2.71757 27.3439 2.2093 26.9067 1.62485 26.9505C1.0411 26.9946 0.603497 27.5035 0.647596 28.0871C0.687596 28.6164 0.73226 29.1504 0.780317 29.6733C1.0558 32.7044 3.46768 35.0652 6.51519 35.2866C10.9896 35.6128 15.494 35.7757 20.0004 35.7757C24.5054 35.7757 29.0123 35.6126 33.4862 35.2868C36.5339 35.0653 38.9458 32.7046 39.2212 29.6734C39.9022 22.1841 39.9022 14.5896 39.2212 7.10056Z" stroke="#F2F5F5"/>
<path d="M9.22855 28.0258V8.74739C9.22855 8.16205 8.75406 7.6875 8.16847 7.6875C7.58289 7.6875 7.1084 8.16205 7.1084 8.74739V28.0257C7.1084 28.611 7.58289 29.0856 8.16847 29.0856C8.75406 29.0856 9.22855 28.6112 9.22855 28.0258Z" fill="#47B199"/>
<path d="M9.22855 28.0258V8.74739C9.22855 8.16205 8.75406 7.6875 8.16847 7.6875C7.58289 7.6875 7.1084 8.16205 7.1084 8.74739V28.0257C7.1084 28.611 7.58289 29.0856 8.16847 29.0856C8.75406 29.0856 9.22855 28.6112 9.22855 28.0258Z" stroke="#F2F5F5"/>
<path d="M12.1128 25.8467C12.6984 25.8467 13.1729 25.3721 13.1729 24.7868V8.74739C13.1729 8.16205 12.6984 7.6875 12.1128 7.6875C11.5272 7.6875 11.0527 8.16205 11.0527 8.74739V24.7868C11.0527 25.3721 11.5272 25.8467 12.1128 25.8467Z" fill="#47B199"/>
<path d="M12.1128 25.8467C12.6984 25.8467 13.1729 25.3721 13.1729 24.7868V8.74739C13.1729 8.16205 12.6984 7.6875 12.1128 7.6875C11.5272 7.6875 11.0527 8.16205 11.0527 8.74739V24.7868C11.0527 25.3721 11.5272 25.8467 12.1128 25.8467Z" stroke="#F2F5F5"/>
<path d="M16.0562 25.8467C16.6418 25.8467 17.1163 25.3721 17.1163 24.7868V8.74739C17.1163 8.16205 16.6418 7.6875 16.0562 7.6875C15.4706 7.6875 14.9961 8.16205 14.9961 8.74739V24.7868C14.9961 25.3721 15.4707 25.8467 16.0562 25.8467Z" fill="#47B199"/>
<path d="M16.0562 25.8467C16.6418 25.8467 17.1163 25.3721 17.1163 24.7868V8.74739C17.1163 8.16205 16.6418 7.6875 16.0562 7.6875C15.4706 7.6875 14.9961 8.16205 14.9961 8.74739V24.7868C14.9961 25.3721 15.4707 25.8467 16.0562 25.8467Z" stroke="#F2F5F5"/>
<path d="M20.0005 25.8467C20.5861 25.8467 21.0606 25.3721 21.0606 24.7868V8.74739C21.0606 8.16205 20.5861 7.6875 20.0005 7.6875C19.4149 7.6875 18.9404 8.16205 18.9404 8.74739V24.7868C18.9404 25.3721 19.4149 25.8467 20.0005 25.8467Z" fill="#47B199"/>
<path d="M20.0005 25.8467C20.5861 25.8467 21.0606 25.3721 21.0606 24.7868V8.74739C21.0606 8.16205 20.5861 7.6875 20.0005 7.6875C19.4149 7.6875 18.9404 8.16205 18.9404 8.74739V24.7868C18.9404 25.3721 19.4149 25.8467 20.0005 25.8467Z" stroke="#F2F5F5"/>
<path d="M11.0527 28.0259C11.0527 28.6112 11.5272 29.0858 12.1128 29.0858C12.6983 29.0858 13.1728 28.6112 13.1728 28.0259V27.9524C13.1728 27.3671 12.6983 26.8926 12.1128 26.8926C11.5272 26.8926 11.0527 27.3671 11.0527 27.9524V28.0259Z" fill="#47B199"/>
<path d="M11.0527 28.0259C11.0527 28.6112 11.5272 29.0858 12.1128 29.0858C12.6983 29.0858 13.1728 28.6112 13.1728 28.0259V27.9524C13.1728 27.3671 12.6983 26.8926 12.1128 26.8926C11.5272 26.8926 11.0527 27.3671 11.0527 27.9524V28.0259Z" stroke="#F2F5F5"/>
<path d="M14.9961 28.0259C14.9961 28.6112 15.4706 29.0858 16.0561 29.0858C16.6417 29.0858 17.1162 28.6112 17.1162 28.0259V27.9524C17.1162 27.3671 16.6417 26.8926 16.0561 26.8926C15.4706 26.8926 14.9961 27.3671 14.9961 27.9524V28.0259Z" fill="#47B199"/>
<path d="M14.9961 28.0259C14.9961 28.6112 15.4706 29.0858 16.0561 29.0858C16.6417 29.0858 17.1162 28.6112 17.1162 28.0259V27.9524C17.1162 27.3671 16.6417 26.8926 16.0561 26.8926C15.4706 26.8926 14.9961 27.3671 14.9961 27.9524V28.0259Z" stroke="#F2F5F5"/>
<path d="M18.9404 28.0259C18.9404 28.6112 19.4149 29.0858 20.0005 29.0858C20.586 29.0858 21.0605 28.6112 21.0605 28.0259V27.9524C21.0605 27.3671 20.586 26.8926 20.0005 26.8926C19.4149 26.8926 18.9404 27.3671 18.9404 27.9524V28.0259Z" fill="#47B199"/>
<path d="M18.9404 28.0259C18.9404 28.6112 19.4149 29.0858 20.0005 29.0858C20.586 29.0858 21.0605 28.6112 21.0605 28.0259V27.9524C21.0605 27.3671 20.586 26.8926 20.0005 26.8926C19.4149 26.8926 18.9404 27.3671 18.9404 27.9524V28.0259Z" stroke="#F2F5F5"/>
<path d="M26.8281 28.0259C26.8281 28.6112 27.3026 29.0858 27.8882 29.0858C28.4737 29.0858 28.9482 28.6112 28.9482 28.0259V27.9524C28.9482 27.3671 28.4737 26.8926 27.8882 26.8926C27.3026 26.8926 26.8281 27.3671 26.8281 27.9524V28.0259Z" fill="#47B199"/>
<path d="M26.8281 28.0259C26.8281 28.6112 27.3026 29.0858 27.8882 29.0858C28.4737 29.0858 28.9482 28.6112 28.9482 28.0259V27.9524C28.9482 27.3671 28.4737 26.8926 27.8882 26.8926C27.3026 26.8926 26.8281 27.3671 26.8281 27.9524V28.0259Z" stroke="#F2F5F5"/>
<path d="M30.7725 28.0259C30.7725 28.6112 31.2469 29.0858 31.8325 29.0858C32.4181 29.0858 32.8925 28.6112 32.8925 28.0259V27.9524C32.8925 27.3671 32.4181 26.8926 31.8325 26.8926C31.2469 26.8926 30.7725 27.3671 30.7725 27.9524V28.0259Z" fill="#47B199"/>
<path d="M30.7725 28.0259C30.7725 28.6112 31.2469 29.0858 31.8325 29.0858C32.4181 29.0858 32.8925 28.6112 32.8925 28.0259V27.9524C32.8925 27.3671 32.4181 26.8926 31.8325 26.8926C31.2469 26.8926 30.7725 27.3671 30.7725 27.9524V28.0259Z" stroke="#F2F5F5"/>
<path d="M25.0044 28.0258V8.74739C25.0044 8.16205 24.5299 7.6875 23.9443 7.6875C23.3588 7.6875 22.8843 8.16205 22.8843 8.74739V28.0257C22.8843 28.611 23.3588 29.0856 23.9443 29.0856C24.5299 29.0856 25.0044 28.6112 25.0044 28.0258Z" fill="#47B199"/>
<path d="M25.0044 28.0258V8.74739C25.0044 8.16205 24.5299 7.6875 23.9443 7.6875C23.3588 7.6875 22.8843 8.16205 22.8843 8.74739V28.0257C22.8843 28.611 23.3588 29.0856 23.9443 29.0856C24.5299 29.0856 25.0044 28.6112 25.0044 28.0258Z" stroke="#F2F5F5"/>
<path d="M27.8882 25.8467C28.4738 25.8467 28.9483 25.3721 28.9483 24.7868V8.74739C28.9483 8.16205 28.4738 7.6875 27.8882 7.6875C27.3026 7.6875 26.8281 8.16205 26.8281 8.74739V24.7868C26.8281 25.3721 27.3028 25.8467 27.8882 25.8467Z" fill="#47B199"/>
<path d="M27.8882 25.8467C28.4738 25.8467 28.9483 25.3721 28.9483 24.7868V8.74739C28.9483 8.16205 28.4738 7.6875 27.8882 7.6875C27.3026 7.6875 26.8281 8.16205 26.8281 8.74739V24.7868C26.8281 25.3721 27.3028 25.8467 27.8882 25.8467Z" stroke="#F2F5F5"/>
<path d="M31.8325 25.8467C32.4181 25.8467 32.8926 25.3721 32.8926 24.7868V8.74739C32.8926 8.16205 32.4181 7.6875 31.8325 7.6875C31.247 7.6875 30.7725 8.16205 30.7725 8.74739V24.7868C30.7725 25.3721 31.247 25.8467 31.8325 25.8467Z" fill="#47B199"/>
<path d="M31.8325 25.8467C32.4181 25.8467 32.8926 25.3721 32.8926 24.7868V8.74739C32.8926 8.16205 32.4181 7.6875 31.8325 7.6875C31.247 7.6875 30.7725 8.16205 30.7725 8.74739V24.7868C30.7725 25.3721 31.247 25.8467 31.8325 25.8467Z" stroke="#F2F5F5"/>
</svg>
