<svg width="206" height="94" viewBox="0 0 206 94" fill="none" xmlns="http://www.w3.org/2000/svg">
<path d="M10.0454 26.2898L33.7354 12.6105C36.1368 11.2275 39.0937 11.2275 41.4952 12.6105L65.1852 26.2898C67.5866 27.6728 69.0621 30.2362 69.0621 33.0079V60.3608C69.0621 63.1326 67.5808 65.6902 65.1852 67.079L41.4952 80.7583C39.0937 82.1413 36.1368 82.1413 33.7354 80.7583L10.0454 67.079C7.64403 65.696 6.16847 63.1326 6.16847 60.3608V33.0022C6.16269 30.2362 7.64403 27.6728 10.0454 26.2898Z" fill="white"/>
<path d="M30.8018 44.4302L12.9735 34.136C11.2376 33.1349 9.06763 34.3848 9.06763 36.3869V56.9754C9.06763 58.9775 11.2376 60.2332 12.9735 59.2263L30.8018 48.9321C32.5377 47.9368 32.5377 45.4313 30.8018 44.4302Z" fill="url(#paint0_linear)"/>
<path d="M14.426 66.2572L36.3106 78.8949C37.1149 79.3578 38.1102 79.3578 38.9145 78.8949L64.8555 63.9194C65.6598 63.4565 66.1575 62.5943 66.1575 61.6685V36.3872C66.1575 34.385 63.9875 33.1293 62.2516 34.1362L14.426 61.7495C12.69 62.7505 12.69 65.2503 14.426 66.2572Z" fill="url(#paint1_linear)"/>
<path d="M14.426 61.7494C12.69 62.7504 12.69 65.256 14.426 66.2571L36.3106 78.8948C36.7157 79.1263 37.1612 79.242 37.6126 79.242V48.3594L14.426 61.7494Z" fill="url(#paint2_linear)"/>
<path d="M90.3606 36.6328L88.5842 33.852C88.4454 33.6396 88.3147 33.4967 88.1922 33.4232C88.0697 33.3415 87.9023 33.3007 87.6899 33.3007H87.2244V36.6328H85.1418V28.0575H87.2244V31.2916H87.6777C87.89 31.2916 88.0575 31.2548 88.18 31.1813C88.3025 31.0997 88.4331 30.9527 88.572 30.7403L90.287 28.0575H92.6269L90.5321 31.3529C90.2462 31.7367 89.9481 32.0389 89.6378 32.2594C89.94 32.4309 90.2421 32.7576 90.5443 33.2394L92.7126 36.6328H90.3606ZM94.7523 29.258C95.6016 28.4005 96.6307 27.9717 97.8394 27.9717C99.0481 27.9717 100.077 28.4005 100.927 29.258C101.784 30.1074 102.213 31.1364 102.213 32.3451C102.213 33.5539 101.784 34.587 100.927 35.4445C100.077 36.2939 99.0481 36.7186 97.8394 36.7186C96.6307 36.7186 95.6016 36.2939 94.7523 35.4445C93.9029 34.587 93.4782 33.5539 93.4782 32.3451C93.4782 31.1364 93.9029 30.1074 94.7523 29.258ZM99.4687 30.6056C99.0358 30.1564 98.4927 29.9318 97.8394 29.9318C97.186 29.9318 96.6429 30.1564 96.2101 30.6056C95.7772 31.0466 95.5608 31.6264 95.5608 32.3451C95.5608 33.072 95.7772 33.6559 96.2101 34.097C96.6429 34.5298 97.186 34.7462 97.8394 34.7462C98.5009 34.7462 99.0481 34.5298 99.4809 34.097C99.9138 33.6559 100.13 33.072 100.13 32.3451C100.13 31.6264 99.9097 31.0466 99.4687 30.6056ZM112.63 36.6328H110.548V31.8306L108.294 34.587L106.052 31.8306V36.6328H103.969V28.0575H105.219L108.294 31.8796L111.381 28.0575H112.63V36.6328ZM121.701 36.6328H119.618V30.0175H117.07V36.6328H114.988V28.0575H121.701V36.6328ZM127.428 31.8674L125.639 36.6328H123.324L126.827 28.0575H128.077L131.531 36.6328H129.216L127.428 31.8674ZM135.341 31.3529H138.796V33.3252H135.341V34.6605H139.127V36.6328H133.259V28.0575H139.127V30.0175H135.341V31.3529ZM146.373 36.6328L144.597 33.852C144.458 33.6396 144.327 33.4967 144.205 33.4232C144.082 33.3415 143.915 33.3007 143.702 33.3007H143.237V36.6328H141.154V28.0575H143.237V31.2916H143.69C143.903 31.2916 144.07 31.2548 144.192 31.1813C144.315 31.0997 144.446 30.9527 144.584 30.7403L146.3 28.0575H148.639L146.545 31.3529C146.259 31.7367 145.961 32.0389 145.65 32.2594C145.952 32.4309 146.255 32.7576 146.557 33.2394L148.725 36.6328H146.373ZM154.199 27.9717C155.473 27.9717 156.551 28.4454 157.433 29.3928L156.085 30.6423C155.563 30.1686 154.934 29.9318 154.199 29.9318C153.545 29.9318 153.002 30.1564 152.57 30.6056C152.137 31.0466 151.92 31.6264 151.92 32.3451C151.92 33.0638 152.137 33.6437 152.57 34.0847C153.002 34.5257 153.545 34.7462 154.199 34.7462C154.942 34.7462 155.571 34.5135 156.085 34.048L157.433 35.2975C156.551 36.2449 155.473 36.7186 154.199 36.7186C152.99 36.7186 151.961 36.2939 151.112 35.4445C150.262 34.587 149.838 33.5539 149.838 32.3451C149.838 31.1364 150.262 30.1074 151.112 29.258C151.961 28.4005 152.99 27.9717 154.199 27.9717ZM165.992 36.6328H163.909V33.3252H161.251V36.6328H159.168V28.0575H161.251V31.3529H163.909V28.0575H165.992V36.6328ZM170.319 31.0833H171.887C172.859 31.0833 173.594 31.3365 174.093 31.8429C174.599 32.3411 174.852 33.0148 174.852 33.8642C174.852 34.7054 174.603 35.3792 174.105 35.8855C173.607 36.3837 172.868 36.6328 171.887 36.6328H168.237V28.0575H170.319V31.0833ZM177.657 36.6328H175.575V28.0575H177.657V36.6328ZM170.319 34.6605H171.924C172.569 34.6605 172.892 34.3951 172.892 33.8642C172.892 33.3252 172.569 33.0557 171.924 33.0557H170.319V34.6605ZM182.214 31.3529H185.668V33.3252H182.214V34.6605H185.999V36.6328H180.131V28.0575H185.999V30.0175H182.214V31.3529ZM88.9027 42.9717C90.1768 42.9717 91.2548 43.4454 92.1369 44.3928L90.7893 45.6423C90.2666 45.1686 89.6378 44.9318 88.9027 44.9318C88.2494 44.9318 87.7063 45.1564 87.2734 45.6056C86.8406 46.0466 86.6242 46.6264 86.6242 47.3451C86.6242 48.0638 86.8406 48.6437 87.2734 49.0847C87.7063 49.5257 88.2494 49.7462 88.9027 49.7462C89.6459 49.7462 90.2748 49.5135 90.7893 49.048L92.1369 50.2975C91.2548 51.2449 90.1768 51.7186 88.9027 51.7186C87.694 51.7186 86.665 51.2939 85.8156 50.4445C84.9663 49.587 84.5416 48.5539 84.5416 47.3451C84.5416 46.1364 84.9663 45.1074 85.8156 44.258C86.665 43.4005 87.694 42.9717 88.9027 42.9717ZM100.757 51.6328H98.6744V46.9164L95.1218 51.6328H93.8722V43.0575H95.9548V47.7739L99.5075 43.0575H100.757V51.6328ZM106.872 42.9717C108.146 42.9717 109.224 43.4454 110.106 44.3928L108.758 45.6423C108.236 45.1686 107.607 44.9318 106.872 44.9318C106.218 44.9318 105.675 45.1564 105.242 45.6056C104.81 46.0466 104.593 46.6264 104.593 47.3451C104.593 48.0638 104.81 48.6437 105.242 49.0847C105.675 49.5257 106.218 49.7462 106.872 49.7462C107.615 49.7462 108.244 49.5135 108.758 49.048L110.106 50.2975C109.224 51.2449 108.146 51.7186 106.872 51.7186C105.663 51.7186 104.634 51.2939 103.785 50.4445C102.935 49.587 102.511 48.5539 102.511 47.3451C102.511 46.1364 102.935 45.1074 103.785 44.258C104.634 43.4005 105.663 42.9717 106.872 42.9717ZM115.504 45.0175V51.6328H113.422V45.0175H111.229V43.0575H117.697V45.0175H115.504ZM121.511 46.3529H124.966V48.3252H121.511V49.6605H125.297V51.6328H119.429V43.0575H125.297V45.0175H121.511V46.3529ZM135.863 51.6328H133.781V46.8306L131.527 49.587L129.285 46.8306V51.6328H127.202V43.0575H128.452L131.527 46.8796L134.614 43.0575H135.863V51.6328ZM140.315 46.0833H141.883C142.855 46.0833 143.59 46.3365 144.088 46.8429C144.595 47.3411 144.848 48.0148 144.848 48.8642C144.848 49.7054 144.599 50.3792 144.101 50.8855C143.602 51.3837 142.863 51.6328 141.883 51.6328H138.233V43.0575H140.315V46.0833ZM147.653 51.6328H145.571V43.0575H147.653V51.6328ZM140.315 49.6605H141.92C142.565 49.6605 142.888 49.3951 142.888 48.8642C142.888 48.3252 142.565 48.0557 141.92 48.0557H140.315V49.6605ZM87.1632 65.4445L86.7222 66.6328H84.4068L87.9105 58.0575H89.16L92.6146 66.6328H90.2993L89.8583 65.4445H87.1632ZM88.5107 61.8061L87.886 63.4722H89.1355L88.5107 61.8061ZM93.9947 58.0575H97.4004C97.8822 58.0575 98.3069 58.1146 98.6744 58.229C99.0419 58.3433 99.3278 58.4822 99.532 58.6455C99.7443 58.8088 99.9117 59.0048 100.034 59.2335C100.165 59.454 100.251 59.6582 100.291 59.846C100.332 60.0257 100.353 60.2054 100.353 60.3851C100.353 61.2344 100.002 61.8347 99.2992 62.1859C99.6912 62.2839 100.006 62.5126 100.242 62.8719C100.487 63.2231 100.61 63.6396 100.61 64.1215C100.61 64.8728 100.357 65.4813 99.8505 65.9468C99.3441 66.4041 98.507 66.6328 97.3391 66.6328H93.9947V58.0575ZM96.0773 60.0175V61.3406H97.6331C97.9026 61.3406 98.0946 61.2712 98.2089 61.1323C98.3232 60.9935 98.3804 60.8424 98.3804 60.6791C98.3804 60.5157 98.3232 60.3646 98.2089 60.2258C98.1027 60.087 97.9108 60.0175 97.6331 60.0175H96.0773ZM96.0773 63.1292V64.6605H97.7801C98.0823 64.6605 98.3028 64.587 98.4417 64.44C98.5805 64.2848 98.6499 64.101 98.6499 63.8887C98.6499 63.6845 98.5764 63.5089 98.4294 63.3619C98.2906 63.2068 98.0741 63.1292 97.7801 63.1292H96.0773ZM106.017 60.0175V66.6328H103.935V60.0175H101.742V58.0575H108.21V60.0175H106.017ZM110.592 59.258C111.441 58.4005 112.47 57.9717 113.679 57.9717C114.888 57.9717 115.917 58.4005 116.766 59.258C117.624 60.1074 118.052 61.1364 118.052 62.3451C118.052 63.5539 117.624 64.587 116.766 65.4445C115.917 66.2939 114.888 66.7186 113.679 66.7186C112.47 66.7186 111.441 66.2939 110.592 65.4445C109.742 64.587 109.318 63.5539 109.318 62.3451C109.318 61.1364 109.742 60.1074 110.592 59.258ZM115.308 60.6056C114.875 60.1564 114.332 59.9318 113.679 59.9318C113.026 59.9318 112.482 60.1564 112.05 60.6056C111.617 61.0466 111.4 61.6264 111.4 62.3451C111.4 63.072 111.617 63.6559 112.05 64.097C112.482 64.5298 113.026 64.7462 113.679 64.7462C114.34 64.7462 114.888 64.5298 115.32 64.097C115.753 63.6559 115.97 63.072 115.97 62.3451C115.97 61.6264 115.749 61.0466 115.308 60.6056ZM128.47 66.6328H126.387V61.8306L124.133 64.587L121.891 61.8306V66.6328H119.809V58.0575H121.058L124.133 61.8796L127.22 58.0575H128.47V66.6328ZM132.971 65.4445L132.53 66.6328H130.215L133.718 58.0575H134.968L138.422 66.6328H136.107L135.666 65.4445H132.971ZM134.318 61.8061L133.694 63.4722H134.943L134.318 61.8061ZM142.709 60.0175V66.6328H140.626V60.0175H138.433V58.0575H144.902V60.0175H142.709ZM153.396 66.6328H151.313V61.9164L147.761 66.6328H146.511V58.0575H148.594V62.7739L152.146 58.0575H153.396V66.6328ZM157.771 61.2548H158.788C159.057 61.2548 159.249 61.1854 159.364 61.0466C159.478 60.9077 159.535 60.7567 159.535 60.5933C159.535 60.1605 159.253 59.94 158.69 59.9318H158.641C158.363 59.9318 158.016 60.0012 157.599 60.1401C157.191 60.2707 156.824 60.4381 156.497 60.6423L155.137 59.3928C156.256 58.4454 157.395 57.9717 158.555 57.9717H158.641C159.212 57.9799 159.698 58.0656 160.099 58.229C160.507 58.3923 160.805 58.6047 160.993 58.866C161.181 59.1192 161.311 59.3642 161.385 59.601C161.467 59.8297 161.507 60.0625 161.507 60.2993C161.507 60.7648 161.405 61.1732 161.201 61.5244C160.997 61.8755 160.748 62.1205 160.454 62.2594C160.838 62.3656 161.148 62.5983 161.385 62.9577C161.63 63.3088 161.752 63.7254 161.752 64.2072C161.752 64.9504 161.499 65.5548 160.993 66.0203C160.495 66.4776 159.678 66.7104 158.543 66.7186H158.457C157.281 66.7186 156.134 66.2326 155.015 65.2608L156.374 64.0112C156.693 64.2235 157.06 64.3991 157.477 64.538C157.893 64.6768 158.245 64.7462 158.531 64.7462H158.604C159.388 64.7462 159.78 64.489 159.78 63.9745C159.78 63.7703 159.711 63.5947 159.572 63.4477C159.433 63.2925 159.217 63.2149 158.923 63.2149H157.771V61.2548ZM165.392 65.4445L164.951 66.6328H162.635L166.139 58.0575H167.388L170.843 66.6328H168.528L168.087 65.4445H165.392ZM166.739 61.8061L166.114 63.4722H167.364L166.739 61.8061ZM180.276 68.2131H178.193V66.6328H172.448V58.0575H174.53V64.6605H177.127V58.0575H179.21V64.6605H180.276V68.2131ZM188.76 66.6328H186.677V61.9164L183.124 66.6328H181.875V58.0575H183.957V62.7739L187.51 58.0575H188.76V66.6328ZM197.876 66.6328H195.793V61.9164L192.24 66.6328H190.991V58.0575H193.073V62.7739L196.626 58.0575H197.876V66.6328Z" fill="white"/>
<defs>
<linearGradient id="paint0_linear" x1="20.5874" y1="37.9675" x2="20.5874" y2="55.6993" gradientUnits="userSpaceOnUse">
<stop stop-color="#69F2C9"/>
<stop offset="1" stop-color="#269286"/>
</linearGradient>
<linearGradient id="paint1_linear" x1="38.3017" y1="56.5103" x2="64.4841" y2="56.5103" gradientUnits="userSpaceOnUse">
<stop stop-color="#269286"/>
<stop offset="1" stop-color="#69F2C9"/>
</linearGradient>
<linearGradient id="paint2_linear" x1="13.1247" y1="63.7992" x2="37.6126" y2="63.7992" gradientUnits="userSpaceOnUse">
<stop stop-color="#269286"/>
<stop offset="1" stop-color="#69F2C9"/>
</linearGradient>
</defs>
</svg>
