<svg width="206" height="94" viewBox="0 0 206 94" fill="none" xmlns="http://www.w3.org/2000/svg">
<path d="M10.0454 26.9934L33.7354 13.3141C36.1368 11.9311 39.0937 11.9311 41.4952 13.3141L65.1852 26.9934C67.5866 28.3764 69.0621 30.9398 69.0621 33.7116V61.0644C69.0621 63.8362 67.5808 66.3938 65.1852 67.7826L41.4952 81.4619C39.0937 82.8449 36.1368 82.8449 33.7354 81.4619L10.0454 67.7826C7.64403 66.3996 6.16847 63.8362 6.16847 61.0644V33.7058C6.16269 30.9398 7.64403 28.3764 10.0454 26.9934Z" fill="#24544D"/>
<path d="M30.8018 45.1341L12.9735 34.8398C11.2376 33.8388 9.06763 35.0887 9.06763 37.0908V57.6792C9.06763 59.6814 11.2376 60.937 12.9735 59.9302L30.8018 49.636C32.5377 48.6407 32.5377 46.1351 30.8018 45.1341Z" fill="url(#paint0_linear)"/>
<path d="M14.426 66.9608L36.3106 79.5985C37.1149 80.0614 38.1102 80.0614 38.9145 79.5985L64.8555 64.623C65.6598 64.1601 66.1575 63.2979 66.1575 62.3721V37.0908C66.1575 35.0886 63.9875 33.833 62.2516 34.8398L14.426 62.4531C12.69 63.4541 12.69 65.9539 14.426 66.9608Z" fill="url(#paint1_linear)"/>
<path d="M14.426 62.453C12.69 63.4541 12.69 65.9596 14.426 66.9607L36.3106 79.5984C36.7157 79.8299 37.1612 79.9456 37.6126 79.9456V49.063L14.426 62.453Z" fill="url(#paint2_linear)"/>
<path d="M90.3606 37.3364L88.5842 34.5556C88.4454 34.3432 88.3147 34.2003 88.1922 34.1268C88.0697 34.0451 87.9023 34.0043 87.6899 34.0043H87.2244V37.3364H85.1418V28.7611H87.2244V31.9952H87.6777C87.89 31.9952 88.0575 31.9585 88.18 31.885C88.3025 31.8033 88.4331 31.6563 88.572 31.4439L90.287 28.7611H92.6269L90.5321 32.0565C90.2462 32.4403 89.9481 32.7425 89.6378 32.963C89.94 33.1345 90.2421 33.4612 90.5443 33.943L92.7126 37.3364H90.3606ZM94.7523 29.9616C95.6016 29.1041 96.6307 28.6753 97.8394 28.6753C99.0481 28.6753 100.077 29.1041 100.927 29.9616C101.784 30.811 102.213 31.84 102.213 33.0488C102.213 34.2575 101.784 35.2906 100.927 36.1481C100.077 36.9975 99.0481 37.4222 97.8394 37.4222C96.6307 37.4222 95.6016 36.9975 94.7523 36.1481C93.9029 35.2906 93.4782 34.2575 93.4782 33.0488C93.4782 31.84 93.9029 30.811 94.7523 29.9616ZM99.4687 31.3092C99.0358 30.86 98.4927 30.6354 97.8394 30.6354C97.186 30.6354 96.6429 30.86 96.2101 31.3092C95.7772 31.7502 95.5608 32.3301 95.5608 33.0488C95.5608 33.7756 95.7772 34.3596 96.2101 34.8006C96.6429 35.2334 97.186 35.4498 97.8394 35.4498C98.5009 35.4498 99.0481 35.2334 99.4809 34.8006C99.9138 34.3596 100.13 33.7756 100.13 33.0488C100.13 32.3301 99.9097 31.7502 99.4687 31.3092ZM112.63 37.3364H110.548V32.5342L108.294 35.2906L106.052 32.5342V37.3364H103.969V28.7611H105.219L108.294 32.5832L111.381 28.7611H112.63V37.3364ZM121.701 37.3364H119.618V30.7212H117.07V37.3364H114.988V28.7611H121.701V37.3364ZM127.428 32.571L125.639 37.3364H123.324L126.827 28.7611H128.077L131.531 37.3364H129.216L127.428 32.571ZM135.341 32.0565H138.796V34.0288H135.341V35.3641H139.127V37.3364H133.259V28.7611H139.127V30.7212H135.341V32.0565ZM146.373 37.3364L144.597 34.5556C144.458 34.3432 144.327 34.2003 144.205 34.1268C144.082 34.0451 143.915 34.0043 143.702 34.0043H143.237V37.3364H141.154V28.7611H143.237V31.9952H143.69C143.903 31.9952 144.07 31.9585 144.192 31.885C144.315 31.8033 144.446 31.6563 144.584 31.4439L146.3 28.7611H148.639L146.545 32.0565C146.259 32.4403 145.961 32.7425 145.65 32.963C145.952 33.1345 146.255 33.4612 146.557 33.943L148.725 37.3364H146.373ZM154.199 28.6753C155.473 28.6753 156.551 29.149 157.433 30.0964L156.085 31.3459C155.563 30.8722 154.934 30.6354 154.199 30.6354C153.545 30.6354 153.002 30.86 152.57 31.3092C152.137 31.7502 151.92 32.3301 151.92 33.0488C151.92 33.7674 152.137 34.3473 152.57 34.7883C153.002 35.2293 153.545 35.4498 154.199 35.4498C154.942 35.4498 155.571 35.2171 156.085 34.7516L157.433 36.0011C156.551 36.9485 155.473 37.4222 154.199 37.4222C152.99 37.4222 151.961 36.9975 151.112 36.1481C150.262 35.2906 149.838 34.2575 149.838 33.0488C149.838 31.84 150.262 30.811 151.112 29.9616C151.961 29.1041 152.99 28.6753 154.199 28.6753ZM165.992 37.3364H163.909V34.0288H161.251V37.3364H159.168V28.7611H161.251V32.0565H163.909V28.7611H165.992V37.3364ZM170.319 31.787H171.887C172.859 31.787 173.594 32.0401 174.093 32.5465C174.599 33.0447 174.852 33.7184 174.852 34.5678C174.852 35.409 174.603 36.0828 174.105 36.5891C173.607 37.0873 172.868 37.3364 171.887 37.3364H168.237V28.7611H170.319V31.787ZM177.657 37.3364H175.575V28.7611H177.657V37.3364ZM170.319 35.3641H171.924C172.569 35.3641 172.892 35.0987 172.892 34.5678C172.892 34.0288 172.569 33.7593 171.924 33.7593H170.319V35.3641ZM182.214 32.0565H185.668V34.0288H182.214V35.3641H185.999V37.3364H180.131V28.7611H185.999V30.7212H182.214V32.0565ZM88.9027 43.6753C90.1768 43.6753 91.2548 44.149 92.1369 45.0964L90.7893 46.3459C90.2666 45.8722 89.6378 45.6354 88.9027 45.6354C88.2494 45.6354 87.7063 45.86 87.2734 46.3092C86.8406 46.7502 86.6242 47.3301 86.6242 48.0488C86.6242 48.7674 86.8406 49.3473 87.2734 49.7883C87.7063 50.2293 88.2494 50.4498 88.9027 50.4498C89.6459 50.4498 90.2748 50.2171 90.7893 49.7516L92.1369 51.0011C91.2548 51.9485 90.1768 52.4222 88.9027 52.4222C87.694 52.4222 86.665 51.9975 85.8156 51.1481C84.9663 50.2906 84.5416 49.2575 84.5416 48.0488C84.5416 46.84 84.9663 45.811 85.8156 44.9616C86.665 44.1041 87.694 43.6753 88.9027 43.6753ZM100.757 52.3364H98.6744V47.62L95.1218 52.3364H93.8722V43.7611H95.9548V48.4775L99.5075 43.7611H100.757V52.3364ZM106.872 43.6753C108.146 43.6753 109.224 44.149 110.106 45.0964L108.758 46.3459C108.236 45.8722 107.607 45.6354 106.872 45.6354C106.218 45.6354 105.675 45.86 105.242 46.3092C104.81 46.7502 104.593 47.3301 104.593 48.0488C104.593 48.7674 104.81 49.3473 105.242 49.7883C105.675 50.2293 106.218 50.4498 106.872 50.4498C107.615 50.4498 108.244 50.2171 108.758 49.7516L110.106 51.0011C109.224 51.9485 108.146 52.4222 106.872 52.4222C105.663 52.4222 104.634 51.9975 103.785 51.1481C102.935 50.2906 102.511 49.2575 102.511 48.0488C102.511 46.84 102.935 45.811 103.785 44.9616C104.634 44.1041 105.663 43.6753 106.872 43.6753ZM115.504 45.7212V52.3364H113.422V45.7212H111.229V43.7611H117.697V45.7212H115.504ZM121.511 47.0565H124.966V49.0288H121.511V50.3641H125.297V52.3364H119.429V43.7611H125.297V45.7212H121.511V47.0565ZM135.863 52.3364H133.781V47.5342L131.527 50.2906L129.285 47.5342V52.3364H127.202V43.7611H128.452L131.527 47.5832L134.614 43.7611H135.863V52.3364ZM140.315 46.787H141.883C142.855 46.787 143.59 47.0401 144.088 47.5465C144.595 48.0447 144.848 48.7184 144.848 49.5678C144.848 50.409 144.599 51.0828 144.101 51.5891C143.602 52.0873 142.863 52.3364 141.883 52.3364H138.233V43.7611H140.315V46.787ZM147.653 52.3364H145.571V43.7611H147.653V52.3364ZM140.315 50.3641H141.92C142.565 50.3641 142.888 50.0987 142.888 49.5678C142.888 49.0288 142.565 48.7593 141.92 48.7593H140.315V50.3641ZM87.1632 66.1481L86.7222 67.3364H84.4068L87.9105 58.7611H89.16L92.6146 67.3364H90.2993L89.8583 66.1481H87.1632ZM88.5107 62.5097L87.886 64.1758H89.1355L88.5107 62.5097ZM93.9947 58.7611H97.4004C97.8822 58.7611 98.3069 58.8182 98.6744 58.9326C99.0419 59.0469 99.3278 59.1858 99.532 59.3491C99.7443 59.5124 99.9117 59.7085 100.034 59.9371C100.165 60.1576 100.251 60.3618 100.291 60.5497C100.332 60.7293 100.353 60.909 100.353 61.0887C100.353 61.938 100.002 62.5383 99.2992 62.8895C99.6912 62.9875 100.006 63.2162 100.242 63.5755C100.487 63.9267 100.61 64.3432 100.61 64.8251C100.61 65.5764 100.357 66.1849 99.8505 66.6504C99.3441 67.1077 98.507 67.3364 97.3391 67.3364H93.9947V58.7611ZM96.0773 60.7212V62.0442H97.6331C97.9026 62.0442 98.0946 61.9748 98.2089 61.836C98.3232 61.6971 98.3804 61.546 98.3804 61.3827C98.3804 61.2193 98.3232 61.0683 98.2089 60.9294C98.1027 60.7906 97.9108 60.7212 97.6331 60.7212H96.0773ZM96.0773 63.8328V65.3641H97.7801C98.0823 65.3641 98.3028 65.2906 98.4417 65.1436C98.5805 64.9884 98.6499 64.8047 98.6499 64.5923C98.6499 64.3881 98.5764 64.2126 98.4294 64.0655C98.2906 63.9104 98.0741 63.8328 97.7801 63.8328H96.0773ZM106.017 60.7212V67.3364H103.935V60.7212H101.742V58.7611H108.21V60.7212H106.017ZM110.592 59.9616C111.441 59.1041 112.47 58.6753 113.679 58.6753C114.888 58.6753 115.917 59.1041 116.766 59.9616C117.624 60.811 118.052 61.84 118.052 63.0488C118.052 64.2575 117.624 65.2906 116.766 66.1481C115.917 66.9975 114.888 67.4222 113.679 67.4222C112.47 67.4222 111.441 66.9975 110.592 66.1481C109.742 65.2906 109.318 64.2575 109.318 63.0488C109.318 61.84 109.742 60.811 110.592 59.9616ZM115.308 61.3092C114.875 60.86 114.332 60.6354 113.679 60.6354C113.026 60.6354 112.482 60.86 112.05 61.3092C111.617 61.7502 111.4 62.3301 111.4 63.0488C111.4 63.7756 111.617 64.3596 112.05 64.8006C112.482 65.2334 113.026 65.4498 113.679 65.4498C114.34 65.4498 114.888 65.2334 115.32 64.8006C115.753 64.3596 115.97 63.7756 115.97 63.0488C115.97 62.3301 115.749 61.7502 115.308 61.3092ZM128.47 67.3364H126.387V62.5342L124.133 65.2906L121.891 62.5342V67.3364H119.809V58.7611H121.058L124.133 62.5832L127.22 58.7611H128.47V67.3364ZM132.971 66.1481L132.53 67.3364H130.215L133.718 58.7611H134.968L138.422 67.3364H136.107L135.666 66.1481H132.971ZM134.318 62.5097L133.694 64.1758H134.943L134.318 62.5097ZM142.709 60.7212V67.3364H140.626V60.7212H138.433V58.7611H144.902V60.7212H142.709ZM153.396 67.3364H151.313V62.62L147.761 67.3364H146.511V58.7611H148.594V63.4775L152.146 58.7611H153.396V67.3364ZM157.771 61.9585H158.788C159.057 61.9585 159.249 61.889 159.364 61.7502C159.478 61.6114 159.535 61.4603 159.535 61.2969C159.535 60.8641 159.253 60.6436 158.69 60.6354H158.641C158.363 60.6354 158.016 60.7048 157.599 60.8437C157.191 60.9743 156.824 61.1418 156.497 61.3459L155.137 60.0964C156.256 59.149 157.395 58.6753 158.555 58.6753H158.641C159.212 58.6835 159.698 58.7692 160.099 58.9326C160.507 59.0959 160.805 59.3083 160.993 59.5696C161.181 59.8228 161.311 60.0678 161.385 60.3046C161.467 60.5333 161.507 60.7661 161.507 61.0029C161.507 61.4684 161.405 61.8768 161.201 62.228C160.997 62.5792 160.748 62.8242 160.454 62.963C160.838 63.0692 161.148 63.3019 161.385 63.6613C161.63 64.0125 161.752 64.429 161.752 64.9108C161.752 65.654 161.499 66.2584 160.993 66.7239C160.495 67.1813 159.678 67.414 158.543 67.4222H158.457C157.281 67.4222 156.134 66.9362 155.015 65.9644L156.374 64.7148C156.693 64.9272 157.06 65.1028 157.477 65.2416C157.893 65.3804 158.245 65.4498 158.531 65.4498H158.604C159.388 65.4498 159.78 65.1926 159.78 64.6781C159.78 64.4739 159.711 64.2983 159.572 64.1513C159.433 63.9961 159.217 63.9185 158.923 63.9185H157.771V61.9585ZM165.392 66.1481L164.951 67.3364H162.635L166.139 58.7611H167.388L170.843 67.3364H168.528L168.087 66.1481H165.392ZM166.739 62.5097L166.114 64.1758H167.364L166.739 62.5097ZM180.276 68.9167H178.193V67.3364H172.448V58.7611H174.53V65.3641H177.127V58.7611H179.21V65.3641H180.276V68.9167ZM188.76 67.3364H186.677V62.62L183.124 67.3364H181.875V58.7611H183.957V63.4775L187.51 58.7611H188.76V67.3364ZM197.876 67.3364H195.793V62.62L192.24 67.3364H190.991V58.7611H193.073V63.4775L196.626 58.7611H197.876V67.3364Z" fill="#24544D"/>
<defs>
<linearGradient id="paint0_linear" x1="20.5874" y1="38.6713" x2="20.5874" y2="56.4032" gradientUnits="userSpaceOnUse">
<stop stop-color="#69F2C9"/>
<stop offset="1" stop-color="#269286"/>
</linearGradient>
<linearGradient id="paint1_linear" x1="38.3017" y1="57.214" x2="64.4841" y2="57.214" gradientUnits="userSpaceOnUse">
<stop stop-color="#269286"/>
<stop offset="1" stop-color="#69F2C9"/>
</linearGradient>
<linearGradient id="paint2_linear" x1="13.1247" y1="64.5028" x2="37.6126" y2="64.5028" gradientUnits="userSpaceOnUse">
<stop stop-color="#269286"/>
<stop offset="1" stop-color="#69F2C9"/>
</linearGradient>
</defs>
</svg>
