<svg width="71" height="68" viewBox="0 0 71 68" fill="none" xmlns="http://www.w3.org/2000/svg">
<path fill-rule="evenodd" clip-rule="evenodd" d="M52.1599 0.0107232C56.895 0.0941984 61.9918 0.277173 65.6171 3.29232C69.1506 6.23111 70.2637 11.0714 70.8985 15.5954C71.4485 19.5159 69.6156 23.1146 68.9459 27.0168C68.1161 31.8512 69.876 37.5648 66.51 41.1638C63.0623 44.8501 57.2331 45.1303 52.1599 44.9644C47.2135 44.8027 41.8853 43.8036 38.4827 40.2473C35.2633 36.8825 36.657 31.4742 35.0789 27.1117C33.4232 22.5348 28.4089 19.0111 29.0575 14.1924C29.7246 9.23683 34.0565 5.44711 38.3498 2.81162C42.4431 0.298932 47.3437 -0.0741819 52.1599 0.0107232Z" fill="#F2F5F5"/>
<g clip-path="url(#clip0)">
<path d="M35.1177 32.2031C29.6209 32.2031 25.1489 36.6751 25.1489 42.1719C25.1489 47.6687 29.6209 52.1406 35.1177 52.1406C40.6145 52.1406 45.0864 47.6687 45.0864 42.1719C45.0864 36.6751 40.6145 32.2031 35.1177 32.2031ZM35.1177 49.875C30.8701 49.875 27.4146 46.4195 27.4146 42.1719C27.4146 37.9243 30.8701 34.4688 35.1177 34.4688C39.3653 34.4688 42.8208 37.9243 42.8208 42.1719C42.8208 46.4195 39.3653 49.875 35.1177 49.875Z" fill="#47B199"/>
<path d="M35.1177 37.0747C34.492 37.0747 33.9849 37.5818 33.9849 38.2075C33.9849 38.8332 34.492 39.3403 35.1177 39.3403C36.6788 39.3403 37.9493 40.6108 37.9493 42.1719C37.9493 42.7976 38.4564 43.3047 39.0821 43.3047C39.7078 43.3047 40.2149 42.7976 40.2149 42.1719C40.2149 39.3611 37.9285 37.0747 35.1177 37.0747Z" fill="#47B199"/>
<path d="M6.9831 21.7134C6.69547 21.1581 6.01224 20.9408 5.45646 21.228C4.90067 21.5156 4.6834 22.1993 4.97103 22.7551L8.02033 28.6457C8.21769 29.0272 8.61683 29.2604 9.0434 29.2577C9.47263 29.2511 9.8616 29.0024 10.0474 28.6152L11.8936 24.7716L13.8986 28.6457C14.0937 29.0219 14.4818 29.2577 14.9048 29.2577H14.9216C15.3513 29.2511 15.7398 29.0024 15.9261 28.6152L18.7551 22.7246C19.0259 22.1608 18.7882 21.4838 18.2245 21.213C17.6603 20.9422 16.9837 21.1798 16.7129 21.744L14.8668 25.5876L12.8613 21.7134C12.664 21.332 12.2657 21.0979 11.8387 21.1015C11.409 21.1081 11.0201 21.3568 10.8342 21.744L8.98853 25.5876L6.9831 21.7134Z" fill="#47B199"/>
<path d="M14.2722 15.4375C14.5705 15.4375 14.8625 15.3163 15.0732 15.1056C15.2842 14.895 15.405 14.6025 15.405 14.3047C15.405 14.0069 15.2842 13.7144 15.0732 13.5038C14.8625 13.2931 14.5705 13.1719 14.2722 13.1719C13.9744 13.1719 13.6824 13.2931 13.4717 13.5038C13.2607 13.7144 13.1394 14.0069 13.1394 14.3047C13.1394 14.6025 13.2607 14.895 13.4717 15.1056C13.6824 15.3163 13.9744 15.4375 14.2722 15.4375Z" fill="#47B199"/>
<path d="M58 32.6562V17.7031C58 15.2047 55.9671 13.1719 53.4688 13.1719H19.0299C18.4047 13.1719 17.8971 13.679 17.8971 14.3047C17.8971 14.9304 18.4047 15.4375 19.0299 15.4375H53.4688C54.7179 15.4375 55.7344 16.4539 55.7344 17.7031V32.6562C55.7344 33.9054 54.7179 34.9219 53.4688 34.9219H48.0312C47.9985 34.9219 47.9666 34.9241 47.9348 34.9267C46.1864 31.846 43.3602 29.4547 39.9719 28.2684L41.6512 24.7721L43.6566 28.6458C43.8513 29.0224 44.2394 29.2578 44.6625 29.2578H44.6797C45.1089 29.2512 45.4979 29.0025 45.6838 28.6153L48.5127 22.7247C48.7835 22.1609 48.5459 21.4843 47.9821 21.2135C47.4184 20.9423 46.7413 21.1799 46.4705 21.7441L44.6248 25.5877L42.6194 21.7135C42.4221 21.3321 42.0242 21.098 41.5963 21.102C41.1667 21.1082 40.7782 21.3569 40.5923 21.7441L38.7462 25.5877L36.7412 21.7135C36.4536 21.1582 35.7699 20.9409 35.2141 21.2286C34.6583 21.5162 34.4415 22.1994 34.7287 22.7552L37.2359 27.5984C36.5443 27.4984 35.8371 27.4453 35.1181 27.4453C33.7255 27.4453 32.3772 27.64 31.0992 28.0029L33.6344 22.7247C33.9052 22.1609 33.6675 21.4843 33.1033 21.2135C32.5396 20.9423 31.8626 21.1799 31.5922 21.7441L29.7461 25.5877L27.7406 21.7135C27.5433 21.3321 27.1472 21.098 26.7176 21.102C26.2883 21.1082 25.8994 21.3569 25.7135 21.7441L23.8678 25.5877L21.8624 21.7135C21.5748 21.1582 20.8915 20.9409 20.3358 21.2286C19.78 21.5162 19.5627 22.1994 19.8503 22.7552L22.8996 28.6458C23.097 29.0273 23.4944 29.2605 23.9227 29.2578C24.3519 29.2512 24.7409 29.0025 24.9267 28.6153L26.7729 24.7721L28.7779 28.6458C28.8115 28.7109 28.8526 28.7697 28.8973 28.8259C26.1193 30.126 23.8112 32.2677 22.3036 34.9219H4.53125C3.28206 34.9219 2.26562 33.9054 2.26562 32.6562V17.7031C2.26562 16.4539 3.28206 15.4375 4.53125 15.4375H9.1749C9.8006 15.4375 10.3077 14.9304 10.3077 14.3047C10.3077 13.679 9.8006 13.1719 9.1749 13.1719H4.53125C2.03287 13.1719 0 15.2047 0 17.7031V32.6562C0 35.1551 2.03287 37.1875 4.53125 37.1875H21.2601C20.6982 38.7451 20.3911 40.4231 20.3911 42.1719C20.3911 50.2923 26.9972 56.8984 35.1176 56.8984C37.7859 56.8984 40.291 56.1851 42.4517 54.939L51.4425 63.9298C52.1912 64.6786 53.1749 65.0529 54.1586 65.0529C55.1423 65.0529 56.126 64.6786 56.8747 63.9298C58.3726 62.432 58.3726 59.9951 56.8747 58.4972L53.3422 54.9647C52.8997 54.5226 52.1824 54.5222 51.7403 54.9647C51.2978 55.4072 51.2978 56.1241 51.7403 56.5666L55.2728 60.0995C55.887 60.7137 55.887 61.7133 55.2728 62.328C54.6586 62.9422 53.659 62.9422 53.0448 62.328L44.3518 53.6345C47.6989 50.933 49.8442 46.7987 49.8442 42.1719C49.8442 40.4231 49.5371 38.7451 48.9751 37.1875H53.4688C55.9676 37.1875 58 35.1546 58 32.6562ZM35.1176 54.6328C28.2469 54.6328 22.6567 49.0426 22.6567 42.1719C22.6567 35.3011 28.2469 29.7109 35.1176 29.7109C41.9884 29.7109 47.5786 35.3011 47.5786 42.1719C47.5786 49.0426 41.9888 54.6328 35.1176 54.6328Z" fill="#47B199"/>
<path d="M49.0531 52.2777C48.8424 52.4883 48.7212 52.7804 48.7212 53.0786C48.7212 53.3764 48.8424 53.6685 49.0531 53.8795C49.265 54.0902 49.5562 54.2114 49.854 54.2114C50.1518 54.2114 50.4443 54.0902 50.6549 53.8795C50.8669 53.6685 50.9868 53.3764 50.9868 53.0786C50.9868 52.7804 50.8669 52.4883 50.6549 52.2777C50.4443 52.067 50.1531 51.9458 49.854 51.9458C49.5562 51.9458 49.2637 52.067 49.0531 52.2777Z" fill="#47B199"/>
</g>
<defs>
<clipPath id="clip0">
<rect width="58" height="58" fill="white" transform="translate(0 10)"/>
</clipPath>
</defs>
</svg>
