<svg width="52" height="58" viewBox="0 0 52 58" fill="none" xmlns="http://www.w3.org/2000/svg">
<path fill-rule="evenodd" clip-rule="evenodd" d="M41.4249 -8.89739C46.1572 -9.37376 51.1421 -8.19878 54.8495 -5.22046C58.4713 -2.31091 60.3446 2.28397 61.0566 6.87379C61.6957 10.9939 59.8534 14.8519 58.5791 18.8219C57.2991 22.8099 56.589 27.0751 53.623 30.0334C50.3454 33.3025 46.0406 35.5679 41.4249 35.9319C36.5827 36.3136 31.5423 35.0999 27.7438 32.0738C24.0305 29.1155 22.6121 24.351 21.1998 19.8193C19.805 15.344 17.9979 10.5632 19.6754 6.18593C21.3253 1.88068 26.0413 -0.0739899 29.8308 -2.70196C33.5217 -5.26162 36.9553 -8.44746 41.4249 -8.89739Z" fill="#F2F5F5"/>
<path d="M41.6459 43.6079C42.2418 42.5759 42.5852 41.3756 42.5852 40.0946V37.1816C42.5852 35.7942 42.1825 34.5016 41.4921 33.415C44.9726 29.761 46.8792 25.1695 46.8792 20.3907C46.8792 14.9089 44.4238 9.76639 39.9654 5.91031C35.559 2.09887 29.7117 0 23.5005 0C19.5442 0 15.6333 0.878266 12.1906 2.53987C11.6351 2.808 11.3983 3.48361 11.6618 4.04888C11.9253 4.61415 12.5892 4.85499 13.1447 4.58697C16.2911 3.06832 19.8721 2.26562 23.5005 2.26562C35.1639 2.26562 44.6527 10.3963 44.6527 20.3905C44.6527 24.5284 43.0048 28.5215 39.993 31.7329C38.8255 30.7888 37.3502 30.2228 35.7465 30.2228C31.9756 30.2228 28.9078 33.3444 28.9078 37.1815V37.9161C27.1508 38.3135 25.3354 38.5154 23.5005 38.5154C19.7828 38.5154 16.1268 37.6764 12.9275 36.0891C12.7562 36.0042 12.5669 35.9653 12.3761 35.9763L12.3207 35.9802C12.2446 35.9847 12.1693 35.997 12.0957 36.0171L10.4283 36.4723C7.96336 37.1453 5.49857 37.8182 3.03344 38.4903C3.02865 38.4916 3.02386 38.4929 3.01919 38.4943C2.75578 38.5695 2.57276 38.4224 2.50608 38.3555C2.42514 38.2744 2.29968 38.0994 2.36747 37.8403C3.12139 34.9773 3.87619 32.1143 4.63121 29.2515C4.70836 28.9589 4.66717 28.647 4.51677 28.3856C3.07786 25.8847 2.34821 23.1946 2.34821 20.3905C2.34821 16.8808 3.52383 13.4745 5.74794 10.5402C6.12334 10.0447 6.03316 9.33343 5.54621 8.95134C5.05927 8.56935 4.36046 8.66111 3.98473 9.15649C1.45748 12.4909 0.121661 16.3755 0.121661 20.3904C0.121661 23.4466 0.875126 26.3788 2.36235 29.1137C1.64674 31.8271 0.931347 34.5405 0.216512 37.2555C-0.041212 38.2399 0.230428 39.2544 0.943259 39.9693C1.64663 40.6747 2.66995 40.9456 3.61635 40.6771C6.07958 40.0056 8.54238 39.3331 11.0054 38.6607L12.3164 38.3027C15.7291 39.9251 19.5866 40.7811 23.5005 40.7811C25.3315 40.7811 27.146 40.5967 28.9112 40.2324C28.9349 41.4615 29.2726 42.6131 29.847 43.6078C28.4365 44.5098 27.2355 45.7239 26.337 47.1662C25.2098 48.9756 24.6139 51.063 24.6139 53.2027V56.8673C24.6139 57.493 25.1124 58.0001 25.7271 58.0001H45.766C46.3808 58.0001 46.8793 57.493 46.8793 56.8673V53.2027C46.8793 51.0661 46.2849 48.9811 45.1606 47.1733C44.2616 45.728 43.0589 44.5115 41.6459 43.6079ZM31.1343 37.1815C31.1343 34.5937 33.2034 32.4884 35.7465 32.4884C38.2897 32.4884 40.3587 34.5937 40.3587 37.1815V40.0945C40.3587 42.6822 38.2897 44.7875 35.7465 44.7875C33.2034 44.7875 31.1343 42.6823 31.1343 40.0945V37.1815ZM44.6527 55.7344H26.8404V53.2026C26.8404 49.9458 28.5316 46.9943 31.2902 45.3662C32.4881 46.4161 34.0451 47.0531 35.7465 47.0531C37.4478 47.0531 39.0048 46.4162 40.2026 45.3664C42.9611 46.9945 44.6527 49.947 44.6527 53.2026V55.7344Z" fill="#47B199"/>
<path d="M10.8774 18.6642C11.4922 18.6642 11.9907 18.157 11.9907 17.5314C11.9907 16.5944 12.7398 15.8321 13.6606 15.8321C14.5814 15.8321 15.3306 16.5944 15.3306 17.5314C15.3306 17.9852 15.1527 18.4161 14.8296 18.7447C13.5365 20.0605 12.5474 21.1858 12.5474 22.6819C12.5474 23.3076 13.0459 23.8147 13.6606 23.8147C14.2754 23.8147 14.7739 23.3076 14.7739 22.6819C14.7739 22.1761 15.1852 21.5868 16.404 20.3467C17.1477 19.5901 17.5571 18.5903 17.5571 17.5313C17.5571 15.345 15.8092 13.5664 13.6606 13.5664C11.5121 13.5664 9.76416 15.345 9.76416 17.5313C9.76416 18.157 10.2627 18.6642 10.8774 18.6642Z" fill="#47B199"/>
<path d="M13.6606 24.9478C13.0459 24.9478 12.5474 25.4549 12.5474 26.0806V26.0814C12.5474 26.707 13.0459 27.2138 13.6606 27.2138C14.2754 27.2138 14.7739 26.7062 14.7739 26.0806C14.7739 25.4549 14.2755 24.9478 13.6606 24.9478Z" fill="#47B199"/>
<path d="M21.3613 15.8325H36.1236C36.7383 15.8325 37.2368 15.3254 37.2368 14.6997C37.2368 14.0741 36.7383 13.5669 36.1236 13.5669H21.3613C20.7466 13.5669 20.248 14.0741 20.248 14.6997C20.248 15.3254 20.7466 15.8325 21.3613 15.8325Z" fill="#47B199"/>
<path d="M21.3613 21.5234H36.1236C36.7383 21.5234 37.2368 21.0163 37.2368 20.3906C37.2368 19.765 36.7383 19.2578 36.1236 19.2578H21.3613C20.7466 19.2578 20.248 19.765 20.248 20.3906C20.248 21.0163 20.7466 21.5234 21.3613 21.5234Z" fill="#47B199"/>
<path d="M21.3613 27.2144H36.1236C36.7383 27.2144 37.2368 26.7072 37.2368 26.0815C37.2368 25.4559 36.7383 24.9487 36.1236 24.9487H21.3613C20.7466 24.9487 20.248 25.4559 20.248 26.0815C20.248 26.7072 20.7466 27.2144 21.3613 27.2144Z" fill="#47B199"/>
<path d="M8.40195 7.36963C9.0167 7.36963 9.51523 6.86247 9.51523 6.23682C9.51523 5.61116 9.0167 5.104 8.40195 5.104H8.40117C7.78641 5.104 7.28833 5.61116 7.28833 6.23682C7.28833 6.86247 7.78708 7.36963 8.40195 7.36963Z" fill="#47B199"/>
</svg>
