<svg width="73" height="58" viewBox="0 0 73 58" fill="none" xmlns="http://www.w3.org/2000/svg">
<path fill-rule="evenodd" clip-rule="evenodd" d="M47.9891 2.02943C52.7607 1.72124 57.2969 3.87316 61.2057 6.62708C65.1613 9.41395 68.3246 13.1345 70.1256 17.6256C72.0239 22.3593 73.8076 27.8963 71.5738 32.4813C69.3864 36.9712 63.3965 37.5527 59.1424 40.1694C55.3377 42.5098 52.4499 46.7543 47.9891 46.9886C43.4585 47.2264 39.8516 43.7041 35.9511 41.3871C31.5708 38.785 25.8391 37.3532 23.8636 32.657C21.8576 27.8884 23.6741 22.2994 25.9716 17.6642C28.0533 13.4643 32.1354 10.9718 35.9573 8.25782C39.7318 5.57749 43.3693 2.32781 47.9891 2.02943Z" fill="#F2F5F5"/>
<g clip-path="url(#clip0)">
<path d="M15.5 13.8984H31.6818C32.3074 13.8984 32.8146 13.3913 32.8146 12.7656C32.8146 12.14 32.3074 11.6328 31.6818 11.6328H15.5C14.8743 11.6328 14.3672 12.14 14.3672 12.7656C14.3672 13.3913 14.8743 13.8984 15.5 13.8984Z" fill="#47B199"/>
<path d="M8.83521 21.6826H31.6818C32.3074 21.6826 32.8146 21.1755 32.8146 20.5498C32.8146 19.9242 32.3074 19.417 31.6818 19.417H8.83521C8.20955 19.417 7.70239 19.9242 7.70239 20.5498C7.70239 21.1755 8.20955 21.6826 8.83521 21.6826Z" fill="#47B199"/>
<path d="M8.83521 29.4668H25.7482C26.3739 29.4668 26.881 28.9596 26.881 28.334C26.881 27.7083 26.3739 27.2012 25.7482 27.2012H8.83521C8.20955 27.2012 7.70239 27.7083 7.70239 28.334C7.70239 28.9596 8.20955 29.4668 8.83521 29.4668Z" fill="#47B199"/>
<path d="M8.58383 40.5123C9.04873 40.5123 9.48453 40.2239 9.65037 39.7612C10.0253 38.7146 11.5001 35.7269 13.2976 35.7269C13.4416 35.7269 13.6939 35.7436 13.7664 35.8552C14.0168 36.2401 13.8515 36.9197 13.7686 37.3259C13.6502 37.9054 13.437 38.4368 13.234 38.9885C13.0235 39.5617 13.3051 40.1986 13.8708 40.4286C14.7007 40.7662 15.2356 40.1167 15.504 39.4269C15.7596 38.8528 16.0681 38.2904 16.4625 37.7993C16.7218 37.4766 17.1235 37.0126 17.5827 37.0126C17.7797 37.0126 17.8937 37.0497 17.9119 37.0761C18.0823 37.3247 17.979 38.2442 17.7005 38.9653C17.4138 39.6959 17.9702 40.512 18.755 40.512H21.3827C22.0083 40.512 22.5155 40.0049 22.5155 39.3792C22.5155 38.7536 22.0083 38.2464 21.3827 38.2464H20.2093C20.3153 37.4599 20.2815 36.5296 19.7841 35.8001C18.939 34.5606 17.1556 34.4913 15.9582 35.2322C15.5677 34.0649 14.4945 33.4614 13.2977 33.4614C11.6763 33.4614 10.1471 34.462 8.87564 36.3551C8.0036 37.6534 7.537 38.9429 7.51762 38.9971C7.30658 39.5862 7.61301 40.2346 8.20207 40.4457C8.32815 40.4909 8.45695 40.5123 8.58383 40.5123Z" fill="#47B199"/>
<path d="M56.2625 16.1609L53.783 13.6814C51.9119 11.8104 48.8676 11.8106 46.9965 13.6814L41.5752 19.1027V4.06348C41.5752 3.43782 41.0681 2.93066 40.4424 2.93066H1.13281C0.50716 2.93066 0 3.43782 0 4.06348V47.2508C0 51.5126 3.5559 55.069 7.81822 55.069H24.7742C25.3998 55.069 25.907 54.5619 25.907 53.9362C25.907 53.3106 25.3998 52.8034 24.7742 52.8034H13.3216C13.3297 52.7955 13.3377 52.7873 13.3458 52.7794C14.5524 51.574 15.3162 50.0431 15.5554 48.3839H47.9301C47.4063 50.9249 45.0815 52.8035 42.4925 52.8035H34.7309C34.1052 52.8035 33.5981 53.3107 33.5981 53.9363C33.5981 54.562 34.1052 55.0692 34.7309 55.0692H42.4925C46.7426 55.0692 50.3106 51.4991 50.3106 47.251C50.3106 46.6254 49.8034 46.1182 49.1778 46.1182H41.5754V31.6967L44.6998 28.5728C45.3281 28.5494 45.9496 28.3014 46.4281 27.8227L53.783 20.4678C54.4254 19.8254 54.8472 19.0447 55.0485 18.2206C55.4934 18.8391 55.7344 19.5786 55.7344 20.3556C55.7344 21.335 55.353 22.2558 54.6605 22.9483L49.2828 28.3259C48.8404 28.7683 48.8404 29.4856 49.2828 29.9281C49.7187 30.364 50.4489 30.3641 50.8849 29.9281L56.2626 24.5504C57.3831 23.4299 58.0001 21.9402 58.0001 20.3556C58 18.7711 57.383 17.2814 56.2625 16.1609ZM2.26562 47.2508V5.19629H39.3097V21.4418C39.0468 21.8389 38.9012 22.2973 38.8858 22.7707L31.8499 29.8066C31.5794 30.0774 31.3205 30.3575 31.0709 30.6447C29.6479 32.2816 28.612 34.1723 27.8851 36.2093C27.5392 37.1785 27.1944 38.1481 26.849 39.1176C26.534 40.0015 27.4163 40.8687 28.286 40.5686C29.3063 40.2162 30.3282 39.8679 31.347 39.5113C33.7341 38.6757 35.9216 37.3516 37.7127 35.5593L39.3098 33.9627V46.1181H14.5034C13.8777 46.1181 13.3706 46.6253 13.3706 47.2509C13.3706 50.2729 10.8392 52.8028 7.81743 52.8028C4.7901 52.8027 2.26562 50.2783 2.26562 47.2508ZM36.1102 33.9572C34.3137 35.7548 32.1479 36.8372 29.7744 37.6571C30.6073 35.3195 31.6753 33.1858 33.4522 31.4089L39.9084 24.9525L42.5117 27.5565L36.1102 33.9572ZM52.181 18.8658L44.8261 26.2207C44.7063 26.3405 44.4993 26.3393 44.3809 26.2207L41.2423 23.0819C41.1235 22.9613 41.1236 22.7586 41.2438 22.6385L48.5988 15.2835C49.0926 14.7897 49.7412 14.5428 50.3899 14.5428C51.0386 14.5428 51.6873 14.7897 52.1811 15.2835C53.1687 16.2711 53.1687 17.8782 52.181 18.8658Z" fill="#47B199"/>
<path d="M30.7728 53.5027C30.5872 53.0574 30.1246 52.7708 29.6433 52.8067C29.15 52.8434 28.7319 53.2064 28.622 53.6878C28.3963 54.6775 29.5481 55.4417 30.3777 54.8621C30.8076 54.5617 30.9712 53.9868 30.7728 53.5027Z" fill="#47B199"/>
</g>
<defs>
<clipPath id="clip0">
<rect width="58" height="58" fill="white"/>
</clipPath>
</defs>
</svg>
