<svg width="36" height="36" viewBox="0 0 36 36" fill="none" xmlns="http://www.w3.org/2000/svg">
<path d="M17.6006 13.018C15.0774 13.018 13.0183 15.0771 13.0183 17.6003C13.0183 20.1235 15.0774 22.1826 17.6006 22.1826C20.1238 22.1826 22.183 20.1235 22.183 17.6003C22.183 15.0771 20.1238 13.018 17.6006 13.018ZM31.3442 17.6003C31.3442 15.7027 31.3614 13.8224 31.2548 11.9282C31.1483 9.72816 30.6464 7.77559 29.0376 6.16679C27.4253 4.55455 25.4762 4.0561 23.2761 3.94953C21.3786 3.84297 19.4982 3.86015 17.6041 3.86015C15.7065 3.86015 13.8261 3.84297 11.932 3.94953C9.73194 4.0561 7.77938 4.55799 6.17058 6.16679C4.55834 7.77903 4.05988 9.72816 3.95332 11.9282C3.84675 13.8258 3.86394 15.7062 3.86394 17.6003C3.86394 19.4944 3.84675 21.3782 3.95332 23.2723C4.05988 25.4724 4.56177 27.425 6.17058 29.0338C7.78282 30.646 9.73194 31.1445 11.932 31.251C13.8296 31.3576 15.7099 31.3404 17.6041 31.3404C19.5016 31.3404 21.382 31.3576 23.2761 31.251C25.4762 31.1445 27.4288 30.6426 29.0376 29.0338C30.6498 27.4215 31.1483 25.4724 31.2548 23.2723C31.3648 21.3782 31.3442 19.4978 31.3442 17.6003ZM17.6006 24.6508C13.6989 24.6508 10.5501 21.502 10.5501 17.6003C10.5501 13.6986 13.6989 10.5497 17.6006 10.5497C21.5023 10.5497 24.6512 13.6986 24.6512 17.6003C24.6512 21.502 21.5023 24.6508 17.6006 24.6508ZM24.9399 11.9076C24.029 11.9076 23.2933 11.172 23.2933 10.261C23.2933 9.35002 24.029 8.61437 24.9399 8.61437C25.8509 8.61437 26.5866 9.35002 26.5866 10.261C26.5868 10.4773 26.5444 10.6915 26.4618 10.8914C26.3791 11.0913 26.2578 11.273 26.1049 11.4259C25.9519 11.5789 25.7703 11.7002 25.5704 11.7828C25.3705 11.8655 25.1562 11.9079 24.9399 11.9076Z" fill="#47B199"/>
</svg>
