<svg width="27" height="27" viewBox="0 0 27 27" fill="none" xmlns="http://www.w3.org/2000/svg">
<path d="M0.4769 13.0181L6.69824 15.3401L9.10628 23.0843C9.26036 23.5803 9.86687 23.7636 10.2694 23.4345L13.7373 20.6074C14.1008 20.3112 14.6186 20.2965 14.9985 20.5722L21.2533 25.1134C21.684 25.4264 22.2941 25.1904 22.4021 24.67L26.9841 2.62985C27.102 2.06141 26.5434 1.5872 26.0022 1.79654L0.46961 11.6462C-0.16048 11.8892 -0.15499 12.7813 0.4769 13.0181ZM8.7182 14.104L20.877 6.61541C21.0955 6.48122 21.3204 6.77669 21.1327 6.95075L11.0982 16.2783C10.7454 16.6067 10.5179 17.046 10.4535 17.523L10.1117 20.0561C10.0664 20.3943 9.59129 20.4279 9.49796 20.1006L8.18333 15.4813C8.03276 14.9544 8.25218 14.3917 8.7182 14.104Z" fill="#47b199"/>
</svg>
