<svg width="35" height="21" viewBox="0 0 35 21" fill="none" xmlns="http://www.w3.org/2000/svg">
<path d="M33.639 1.8213C33.8742 1.03065 33.639 0.44873 32.5077 0.44873H28.7641C27.8108 0.44873 27.3722 0.948422 27.137 1.50504C27.137 1.50504 25.2303 6.12877 22.5355 9.12691C21.6647 9.99347 21.2643 10.2718 20.7876 10.2718C20.5525 10.2718 20.1902 9.99347 20.1902 9.20282V1.8213C20.1902 0.872519 19.9233 0.44873 19.1351 0.44873H13.2497C12.6523 0.44873 12.2963 0.891495 12.2963 1.30263C12.2963 2.20081 13.6438 2.40954 13.7836 4.93963V10.4299C13.7836 11.6317 13.5675 11.8531 13.0908 11.8531C11.8197 11.8531 8.73075 7.21038 6.90029 1.8972C6.53166 0.866194 6.16938 0.44873 5.20966 0.44873H1.46612C0.398347 0.44873 0.182251 0.948422 0.182251 1.50504C0.182251 2.49177 1.4534 7.39381 6.09947 13.8708C9.19472 18.2921 13.5548 20.6894 17.5208 20.6894C19.9042 20.6894 20.1966 20.1581 20.1966 19.2409C20.1966 15.0157 19.9805 14.6172 21.1753 14.6172C21.7283 14.6172 22.6817 14.8955 24.9062 17.0271C27.4485 19.5572 27.868 20.6894 29.2917 20.6894H33.0352C34.103 20.6894 34.6432 20.1581 34.3318 19.1081C33.6199 16.9006 28.8086 12.3591 28.5925 12.0555C28.0396 11.3471 28.1985 11.0308 28.5925 10.3983C28.5989 10.392 33.1687 3.99085 33.639 1.8213Z" fill="#47B199"/>
</svg>
